<svg width="15" height="14" viewBox="0 0 15 14" fill="none" xmlns="http://www.w3.org/2000/svg">
<path d="M13 3.66669H2.33333C1.59695 3.66669 1 4.26364 1 5.00002V11.6667C1 12.4031 1.59695 13 2.33333 13H13C13.7364 13 14.3333 12.4031 14.3333 11.6667V5.00002C14.3333 4.26364 13.7364 3.66669 13 3.66669Z" stroke="black" stroke-linecap="round" stroke-linejoin="round"/>
<path d="M10.3333 13V2.33333C10.3333 1.97971 10.1929 1.64057 9.94281 1.39052C9.69276 1.14048 9.35362 1 9 1H6.33333C5.97971 1 5.64057 1.14048 5.39052 1.39052C5.14048 1.64057 5 1.97971 5 2.33333V13" stroke="black" stroke-linecap="round" stroke-linejoin="round"/>
</svg>
