<svg width="563" height="560" viewBox="0 0 563 560" fill="none" xmlns="http://www.w3.org/2000/svg">
<path d="M121.661 174.708C122.591 167.948 113.054 162.386 105.889 161.809C102.472 161.533 98.9214 162.056 95.6853 160.927C88.6705 158.48 85.869 149.415 79.0243 146.527C73.9082 144.369 68.0172 146.291 63.0563 148.788C58.0966 151.285 53.194 154.429 47.652 154.783C42.8314 155.093 37.5972 153.304 33.3789 155.659C30.236 157.416 28.5906 161.038 25.6935 163.175C22.8598 165.267 19.163 165.71 15.6463 165.901C12.1308 166.092 8.48988 166.128 5.28857 167.594C2.08726 169.061 -0.561466 172.448 0.102887 175.908L121.661 174.708Z" fill="#EBEBEB"/>
<path d="M182.567 25.0178C183.268 19.928 176.086 15.7402 170.692 15.3054C168.118 15.0979 165.446 15.4917 163.008 14.6407C157.727 12.7996 155.617 5.97307 150.462 3.79901C146.61 2.17282 142.175 3.62012 138.439 5.50099C134.704 7.38186 131.012 9.74848 126.84 10.0156C123.21 10.2479 119.269 8.90122 116.092 10.6753C113.727 11.9971 112.486 14.7252 110.305 16.334C108.171 17.9093 105.388 18.2422 102.74 18.3863C100.093 18.5304 97.3512 18.5578 94.9409 19.661C92.5306 20.7666 90.5363 23.3159 91.0367 25.9222L182.567 25.0178Z" fill="#F5F5F5"/>
<path d="M388.86 61.9289C389.947 54.0352 378.812 47.5428 370.446 46.8682C366.456 46.5465 362.312 47.1564 358.532 45.8383C350.341 42.9835 347.072 32.3989 339.081 29.0273C333.107 26.5066 326.228 28.7502 320.437 31.666C314.645 34.5829 308.922 38.2527 302.452 38.6664C296.824 39.0267 290.712 36.9384 285.787 39.6901C282.118 41.7399 280.196 45.9688 276.814 48.4646C273.505 50.9058 269.188 51.4226 265.084 51.6462C260.979 51.8698 256.728 51.912 252.989 53.624C249.252 55.3359 246.16 59.2902 246.936 63.3302L388.86 61.9289Z" fill="#F5F5F5"/>
<path d="M481.53 350.792C455.493 343.989 432.739 326.862 420.082 304.538C407.424 282.212 405.038 255.001 413.638 231.048C420.349 212.355 433.283 195.903 438.829 176.879C445.124 155.287 441.375 132.382 437.489 110.3C433.602 88.2163 429.642 65.3812 435.543 43.6928C441.446 22.0032 460.024 1.63409 483.915 0.0923754C506.077 -1.33753 526.545 14.0064 535.791 32.8822C545.04 51.7555 545.098 73.3967 542.94 94.0577C540.781 114.719 536.571 135.35 537.894 156.072C540.571 198.019 565.714 237.503 562.759 279.434C561.22 301.269 552.179 315.244 536.703 331.665C523.358 345.822 501.178 355.132 481.53 350.792Z" fill="#F5F5F5"/>
<path d="M489.37 558.639C489.138 558.639 488.951 465.713 488.951 351.111C488.951 236.469 489.138 143.565 489.37 143.565C489.603 143.565 489.79 236.469 489.79 351.111C489.79 465.713 489.603 558.639 489.37 558.639Z" fill="#E0E0E0"/>
<path d="M488.17 278.276C488.089 278.348 486.621 277.061 484.339 274.898C482.057 272.737 478.958 269.689 475.694 266.198C472.433 262.712 469.417 259.617 467.245 257.359C465.075 255.1 463.76 253.679 463.846 253.602C463.928 253.53 465.394 254.816 467.677 256.979C469.959 259.14 473.057 262.189 476.323 265.68C479.583 269.166 482.601 272.259 484.771 274.518C486.942 276.776 488.257 278.199 488.17 278.276Z" fill="#E0E0E0"/>
<path d="M490.673 191.329C490.582 191.114 494.383 190.889 499.144 187.799C501.504 186.279 503.976 183.988 505.943 180.956C507.921 177.95 509.351 174.181 509.637 170.111C509.65 169.984 509.663 169.859 509.675 169.742L510.155 170.148C505.905 170.782 502.433 173.194 499.943 175.767C497.385 178.335 495.639 181.094 494.25 183.411C492.884 185.753 491.926 187.723 491.276 189.087C490.632 190.455 490.277 191.214 490.217 191.193C490.169 191.176 490.422 190.382 490.977 188.973C491.535 187.567 492.416 185.553 493.729 183.153C495.066 180.778 496.78 177.95 499.373 175.281C501.891 172.62 505.506 170.049 510.031 169.373L510.56 169.294L510.513 169.779C510.502 169.9 510.488 170.03 510.476 170.161C510.179 174.373 508.676 178.259 506.6 181.337C504.539 184.439 501.943 186.756 499.48 188.256C497.018 189.772 494.762 190.569 493.174 190.935C492.39 191.156 491.747 191.199 491.326 191.276C490.903 191.337 490.678 191.355 490.673 191.329Z" fill="#E0E0E0"/>
<path d="M490.673 191.329C490.495 191.188 493.098 187.952 496.483 184.102C499.87 180.25 502.76 177.236 502.942 177.371C503.123 177.505 500.523 180.741 497.131 184.599C493.741 188.455 490.85 191.469 490.673 191.329Z" fill="#E0E0E0"/>
<path d="M372.811 433.424L343.859 559.192L356.098 559.162L385.119 434.611L372.811 433.424Z" fill="#E0E0E0"/>
<path d="M425.631 433.424L454.686 559.192H466.32L438.206 433.424H425.631Z" fill="#E0E0E0"/>
<path d="M353.269 338.963L369.755 425.552H388.488L370.879 338.963H353.269Z" fill="#E0E0E0"/>
<path d="M66.1302 433.424L42.5153 559.192H54.5369L79.2087 433.424H66.1302Z" fill="#E0E0E0"/>
<path d="M115.791 433.424L142.79 558.506H154.669L128.598 433.424H115.791Z" fill="#E0E0E0"/>
<path d="M46.5873 338.963L63.0732 425.552H81.8068L64.197 338.963H46.5873Z" fill="#E0E0E0"/>
<path d="M9.49384 331.092L12.8653 346.836H389.046L384.656 331.092H9.49384Z" fill="#EBEBEB"/>
<path d="M16.6837 361.665L20.6536 377.409H394.291L390.893 361.665H16.6837Z" fill="#EBEBEB"/>
<path d="M24.1066 393.316L27.8071 409.06H400.286L396.764 393.316H24.1066Z" fill="#EBEBEB"/>
<path d="M52.582 441.296H454.24V425.552H52.582V441.296Z" fill="#EBEBEB"/>
<path d="M490.368 141.866L487.771 137.584C465.871 101.481 426.278 79.7167 384.533 82.3578C379.166 82.697 373.822 83.4237 368.551 84.553C330.596 92.6803 297.571 121.395 283.882 158.17C275.831 179.798 273.582 204.7 258.304 221.867C238.421 244.208 204.664 244.91 174.986 243.985C145.307 243.059 111.528 243.848 91.7416 266.28C79.3498 280.326 75.4109 300.303 76.4105 319.117C79.0555 368.925 113.747 413.46 157.866 435.596C201.987 457.733 253.932 459.716 302.217 449.978C369.86 436.336 434.188 398.874 472.854 341.011C511.52 283.149 521.305 204.319 490.368 141.866Z" fill="#EBEBEB"/>
<path d="M544.181 558.639C544.181 558.818 422.536 558.962 272.515 558.962C122.441 558.962 0.822021 558.818 0.822021 558.639C0.822021 558.459 122.441 558.315 272.515 558.315C422.536 558.315 544.181 558.459 544.181 558.639Z" fill="#1E2944"/>
<path d="M98.9729 46.0571C98.9729 46.0397 98.7209 46.036 98.2279 46.0447C97.6877 46.0596 96.9625 46.0807 96.0386 46.1068C95.558 46.1292 95.0166 46.128 94.4243 46.1776C93.832 46.2621 93.1875 46.3516 92.4933 46.4497C91.793 46.5503 91.0404 46.6584 90.2395 46.774C89.4485 46.969 88.609 47.1777 87.7212 47.3988C84.1833 48.3082 79.8979 49.8636 75.5157 52.7222C71.1372 55.5336 66.586 59.5549 62.893 65.0211C59.2682 70.4923 56.4717 77.3773 55.7316 85.1107C55.6596 87.045 55.4261 89.0141 55.6124 91.0142C55.6819 92.013 55.6621 93.028 55.8086 94.0343C55.9601 95.0406 56.1128 96.0543 56.2656 97.0755C57.0901 101.109 58.2897 105.242 60.3684 109.091C62.3975 112.949 65.0152 116.621 68.2128 119.891C71.4712 123.093 75.2773 125.871 79.5142 128.013C83.7375 130.172 88.4178 131.663 93.2905 132.243C94.4976 132.482 95.7331 132.482 96.965 132.555C98.1981 132.637 99.4361 132.682 100.679 132.623C103.164 132.523 105.656 132.211 108.119 131.683C113.469 130.544 118.507 128.363 122.931 125.448L122.481 125.494C127.615 127.555 132.653 129.577 137.569 131.551L138.462 131.909L138.207 130.981C136.685 125.443 135.203 120.056 133.771 114.846L133.696 115.244C137.93 109.615 140.629 103.188 141.746 96.8059C142.306 93.6169 142.545 90.434 142.332 87.3593C142.268 85.8176 142.193 84.2982 141.904 82.8223C141.79 82.0807 141.675 81.3452 141.562 80.6135C141.427 79.888 141.206 79.1848 141.035 78.4779C138.12 67.1194 131.128 58.73 124.202 53.9285C120.735 51.4861 117.317 49.7332 114.185 48.6412C113.405 48.3616 112.652 48.0933 111.928 47.8337C111.185 47.6448 110.471 47.4634 109.786 47.2895C109.103 47.1193 108.45 46.9578 107.827 46.8038C107.199 46.682 106.591 46.6174 106.024 46.5305C104.883 46.3864 103.88 46.1888 103.003 46.1453C102.137 46.1155 101.401 46.0907 100.785 46.0708C100.223 46.0584 99.7776 46.0484 99.4312 46.041C99.1282 46.0385 98.9729 46.0435 98.9729 46.0571C98.9729 46.0708 99.1282 46.0907 99.4299 46.1193C99.7751 46.1466 100.22 46.1826 100.778 46.2261C101.389 46.2671 102.122 46.3168 102.981 46.3752C103.852 46.4423 104.845 46.6621 105.974 46.8299C110.413 47.6436 117.071 49.4151 123.871 54.3906C130.661 59.1934 137.476 67.5021 140.28 78.668C140.443 79.3637 140.658 80.0545 140.787 80.7675C140.894 81.4856 141.004 82.2099 141.113 82.9379C141.39 84.3877 141.454 85.8797 141.511 87.3916C141.709 90.4104 141.462 93.5299 140.9 96.6531C139.782 102.903 137.119 109.187 132.961 114.69L132.824 114.87L132.884 115.089C134.305 120.303 135.774 125.692 137.286 131.234L137.924 130.665C133.01 128.685 127.976 126.658 122.845 124.589L122.608 124.495L122.394 124.635C118.065 127.484 113.143 129.612 107.914 130.725C105.507 131.241 103.071 131.546 100.642 131.645C99.4262 131.704 98.2155 131.659 97.0097 131.581C95.8052 131.508 94.5969 131.511 93.4172 131.277C88.6525 130.714 84.0778 129.261 79.9439 127.155C75.7988 125.066 72.0697 122.357 68.8734 119.229C65.7391 116.035 63.1674 112.447 61.1681 108.676C59.1217 104.913 57.937 100.87 57.1125 96.9189C56.9585 95.9189 56.8045 94.925 56.6518 93.9386C56.5052 92.9535 56.5214 91.9571 56.4494 90.9782C56.2569 89.0165 56.4792 87.0835 56.54 85.184C57.2329 77.5934 59.9388 70.8166 63.4679 65.4063C67.0666 60.0034 71.5171 56.0019 75.8125 53.1818C80.1103 50.3158 84.3298 48.7244 87.8205 47.7666C88.6972 47.5318 89.5267 47.3119 90.3065 47.1032C91.1 46.9727 91.8439 46.851 92.5368 46.7367C93.2247 46.6236 93.863 46.5193 94.4491 46.4211C95.0377 46.3565 95.5742 46.3416 96.051 46.3031C96.9712 46.236 97.6914 46.1839 98.2291 46.1453C98.7209 46.1031 98.9729 46.0745 98.9729 46.0571Z" fill="#1E2944"/>
<path d="M92.2119 85.476L94.5986 85.4263L99.6588 78.0581L99.5607 73.2913C99.5607 73.2913 103.246 72.9882 102.94 79.2383C102.634 85.4896 103.071 83.8908 103.071 83.8908C103.071 83.8908 110.906 83.7603 111.57 84.4274C112.054 84.9119 112.427 92.6926 112.596 96.914C112.68 99.0384 111.417 101.041 109.452 101.584C109.173 101.662 108.89 101.709 108.612 101.716C106.658 101.755 96.6413 100.37 96.6413 100.37L92.5186 100.456L92.2119 85.476Z" fill="#79CED2"/>
<path d="M85.3522 84.3077L87.1553 100.611L91.2432 100.526L90.9142 84.5226L85.3522 84.3077Z" fill="#79CED2"/>
<path d="M89.3876 503.494C91.9518 504.607 93.8394 506.98 94.7856 509.611C95.7318 512.244 95.8175 515.118 95.5033 517.899C94.8936 523.275 91.8388 528.704 88.5506 533.002C84.0243 529.049 82.9825 522.155 82.6732 518.624C82.1865 513.044 84.6911 502.662 89.3876 503.494Z" fill="#79CED2"/>
<path d="M93.812 541.877C93.088 538.839 94.3522 535.503 96.6842 533.425C99.0163 531.346 102.273 530.467 105.388 530.705C106.828 530.816 108.384 531.236 109.209 532.422C109.98 533.53 109.893 535.077 109.268 536.274C108.643 537.472 107.56 538.367 106.416 539.085C102.495 541.546 98.2464 543.209 93.812 541.877Z" fill="#79CED2"/>
<path d="M88.0075 558.366C87.9802 558.36 88.0423 557.968 88.1689 557.263C88.3105 556.485 88.4955 555.483 88.7153 554.276C89.2158 551.78 89.859 548.205 91.7974 544.735C93.7085 541.274 96.3871 538.725 98.6409 537.46C99.7597 536.812 100.74 536.427 101.431 536.225C101.773 536.11 102.052 536.066 102.235 536.022C102.42 535.981 102.519 535.968 102.521 535.981C102.554 536.069 100.953 536.357 98.7837 537.697C96.6069 538.999 94.0202 541.523 92.1389 544.927C90.239 548.324 89.556 551.85 88.9873 554.332C88.7128 555.583 88.4906 556.597 88.318 557.295C88.1453 557.991 88.0336 558.372 88.0075 558.366Z" fill="#1E2944"/>
<path d="M88.1779 511.568C88.1916 511.568 88.2102 511.734 88.2325 512.051C88.2549 512.409 88.281 512.869 88.3157 513.438C88.3803 514.641 88.4499 516.384 88.5194 518.539C88.6597 522.847 88.769 528.804 88.7417 535.382C88.7119 541.962 88.5504 547.918 88.3741 552.227C88.2859 554.379 88.2003 556.121 88.1258 557.325C88.086 557.893 88.055 558.352 88.0314 558.71C88.0053 559.027 87.9854 559.192 87.9718 559.192C87.9581 559.191 87.9519 559.024 87.9519 558.706C87.9569 558.347 87.9643 557.888 87.973 557.319C88.0028 556.064 88.045 554.335 88.0972 552.217C88.2027 547.908 88.3195 541.956 88.3493 535.381C88.3766 528.806 88.3108 522.854 88.2425 518.545C88.209 516.427 88.1816 514.696 88.163 513.443C88.1593 512.872 88.1556 512.413 88.1543 512.054C88.1568 511.737 88.1642 511.569 88.1779 511.568Z" fill="#1E2944"/>
<path d="M85.9804 545.151C84.9497 538.645 80.5675 532.761 74.628 529.915C73.1168 529.19 71.1411 528.717 69.8968 529.843C68.6513 530.971 68.9307 532.994 69.5405 534.56C72.0749 541.076 78.8849 545.676 85.8736 545.593" fill="#79CED2"/>
<path d="M75.3622 535.017C75.3734 534.992 75.7137 535.142 76.3221 535.435C76.6276 535.579 77.0014 535.76 77.4075 536.014C77.8148 536.269 78.3065 536.516 78.7896 536.881C79.2838 537.231 79.8351 537.601 80.3703 538.072C80.9329 538.51 81.4805 539.039 82.053 539.601C83.1681 540.75 84.2906 542.124 85.2493 543.709C86.1943 545.306 86.8773 546.944 87.3554 548.474C87.5714 549.246 87.7788 549.98 87.8868 550.685C88.0408 551.383 88.0967 552.045 88.1588 552.646C88.2432 553.248 88.2147 553.798 88.2345 554.278C88.2557 554.758 88.2246 555.171 88.1973 555.508C88.1489 556.182 88.1091 556.552 88.0818 556.55C87.9924 556.546 88.1464 555.054 87.8831 552.676C87.8049 552.082 87.7329 551.433 87.569 550.748C87.4473 550.055 87.2312 549.337 87.0101 548.58C86.5209 547.082 85.8404 545.48 84.9128 543.912C83.9715 542.353 82.8775 540.997 81.7947 539.853C81.2371 539.294 80.7069 538.764 80.1617 538.32C79.6427 537.845 79.1074 537.468 78.6294 537.109C76.6847 535.714 75.3225 535.094 75.3622 535.017Z" fill="#1E2944"/>
<path d="M346.336 512.694L347.219 557.257L291.805 558.638C291.997 553.335 320.399 541.988 320.399 541.988L318.664 513.458L346.336 512.694Z" fill="#79CED2"/>
<g opacity="0.600006">
<g opacity="0.600006">
<path opacity="0.600006" d="M337.475 539.158C338.554 539.426 339.326 540.613 339.105 541.703C338.882 542.793 337.682 543.587 336.597 543.34C335.513 543.093 334.545 541.695 334.886 540.637C335.228 539.578 336.689 538.721 337.683 539.223" fill="white"/>
</g>
</g>
<g opacity="0.600006">
<g opacity="0.600006">
<path opacity="0.600006" d="M347.219 557.257L346.953 552.77L293.923 555.771C293.923 555.771 291.482 556.907 291.805 558.639L347.219 557.257Z" fill="white"/>
</g>
</g>
<path d="M319.495 541.728C319.511 541.999 320.866 542.087 322.219 542.924C323.595 543.726 324.311 544.882 324.556 544.768C324.804 544.71 324.36 543.101 322.705 542.116C321.058 541.117 319.43 541.481 319.495 541.728Z" fill="#1E2944"/>
<path d="M313.743 544.278C313.687 544.542 314.871 544.973 315.818 546.094C316.798 547.189 317.061 548.421 317.331 548.403C317.586 548.439 317.734 546.849 316.528 545.476C315.336 544.093 313.742 544.02 313.743 544.278Z" fill="#1E2944"/>
<path d="M310.614 551.32C310.861 551.371 311.205 550.008 310.474 548.544C309.752 547.072 308.461 546.521 308.353 546.748C308.205 546.975 309.046 547.749 309.629 548.963C310.239 550.159 310.345 551.299 310.614 551.32Z" fill="#1E2944"/>
<path d="M319.82 535.182C319.94 535.425 321.172 535.021 322.703 535.087C324.238 535.122 325.44 535.607 325.576 535.37C325.727 535.17 324.541 534.198 322.736 534.146C320.931 534.08 319.682 534.973 319.82 535.182Z" fill="#1E2944"/>
<path d="M320.976 528.572C320.976 528.684 322.049 528.824 323.751 528.489C324.598 528.32 325.594 528.017 326.633 527.524C327.152 527.276 327.681 526.983 328.205 526.637C328.456 526.468 328.755 526.294 329.026 525.963C329.32 525.674 329.472 524.952 329.116 524.521C328.82 524.101 328.315 523.931 327.915 523.932C327.505 523.928 327.176 524.019 326.877 524.101C326.263 524.266 325.691 524.485 325.165 524.736C324.119 525.244 323.275 525.875 322.65 526.48C321.393 527.704 320.979 528.726 321.072 528.776C321.198 528.862 321.803 527.999 323.085 526.983C323.726 526.478 324.547 525.952 325.527 525.526C326.019 525.317 326.546 525.133 327.108 524.996C327.691 524.825 328.19 524.81 328.348 525.068C328.404 525.166 328.411 525.204 328.295 525.379C328.171 525.542 327.937 525.701 327.69 525.871C327.208 526.204 326.721 526.494 326.245 526.746C325.29 527.25 324.373 527.601 323.587 527.842C322.011 528.325 320.968 528.426 320.976 528.572Z" fill="#1E2944"/>
<path d="M321.338 528.951C321.435 528.99 321.948 528.006 322.004 526.251C322.029 525.38 321.912 524.328 321.549 523.221C321.364 522.668 321.118 522.104 320.799 521.553C320.461 521.012 320.048 520.289 318.995 520.195C318.446 520.187 318 520.628 317.855 520.998C317.682 521.377 317.653 521.7 317.595 522.023C317.51 522.673 317.537 523.308 317.64 523.893C317.845 525.068 318.352 526.037 318.897 526.732C320.016 528.142 321.153 528.436 321.173 528.344C321.261 528.205 320.304 527.707 319.442 526.347C319.016 525.677 318.63 524.788 318.498 523.76C318.431 523.247 318.425 522.704 318.509 522.154C318.581 521.564 318.79 521.082 319.012 521.138C319.288 521.125 319.767 521.559 320.006 522.022C320.302 522.512 320.541 523.016 320.731 523.51C321.103 524.503 321.279 525.458 321.337 526.267C321.454 527.892 321.19 528.913 321.338 528.951Z" fill="#1E2944"/>
<path d="M391.513 511.815L392.395 556.38L336.982 557.76C337.173 552.458 365.576 541.111 365.576 541.111L363.84 512.581L391.513 511.815Z" fill="#79CED2"/>
<g opacity="0.600006">
<g opacity="0.600006">
<path opacity="0.600006" d="M382.651 538.28C383.732 538.549 384.503 539.735 384.281 540.826C384.06 541.916 382.859 542.71 381.775 542.463C380.691 542.216 379.721 540.818 380.062 539.759C380.405 538.701 381.867 537.844 382.86 538.346" fill="white"/>
</g>
</g>
<g opacity="0.600006">
<g opacity="0.600006">
<path opacity="0.600006" d="M392.395 556.38L392.13 551.891L339.099 554.894C339.099 554.894 336.659 556.03 336.982 557.76L392.395 556.38Z" fill="white"/>
</g>
</g>
<path d="M364.672 540.851C364.687 541.122 366.043 541.21 367.395 542.047C368.771 542.849 369.486 544.004 369.732 543.891C369.98 543.831 369.537 542.224 367.881 541.239C366.234 540.24 364.606 540.604 364.672 540.851Z" fill="#1E2944"/>
<path d="M358.919 543.4C358.863 543.664 360.047 544.096 360.994 545.217C361.975 546.312 362.238 547.544 362.508 547.524C362.762 547.562 362.91 545.97 361.706 544.599C360.514 543.216 358.919 543.141 358.919 543.4Z" fill="#1E2944"/>
<path d="M355.792 550.441C356.039 550.494 356.383 549.131 355.65 547.667C354.929 546.195 353.638 545.644 353.529 545.871C353.383 546.097 354.223 546.872 354.806 548.085C355.415 549.282 355.522 550.421 355.792 550.441Z" fill="#1E2944"/>
<path d="M364.997 534.305C365.117 534.548 366.348 534.144 367.88 534.21C369.414 534.245 370.616 534.728 370.752 534.492C370.904 534.293 369.717 533.321 367.911 533.268C366.107 533.201 364.859 534.096 364.997 534.305Z" fill="#1E2944"/>
<path d="M366.153 527.694C366.153 527.807 367.225 527.946 368.927 527.611C369.774 527.443 370.77 527.14 371.809 526.645C372.328 526.399 372.857 526.106 373.381 525.759C373.632 525.59 373.931 525.417 374.203 525.086C374.496 524.797 374.649 524.075 374.291 523.643C373.997 523.224 373.49 523.054 373.09 523.054C372.682 523.051 372.353 523.141 372.054 523.223C371.44 523.388 370.866 523.608 370.342 523.859C369.296 524.367 368.451 524.998 367.825 525.603C366.57 526.827 366.155 527.848 366.249 527.899C366.375 527.984 366.978 527.121 368.262 526.106C368.903 525.599 369.724 525.074 370.702 524.649C371.194 524.439 371.723 524.255 372.283 524.117C372.867 523.948 373.367 523.932 373.524 524.19C373.58 524.289 373.588 524.327 373.47 524.502C373.347 524.664 373.113 524.824 372.866 524.994C372.384 525.326 371.897 525.617 371.42 525.869C370.467 526.373 369.55 526.723 368.764 526.964C367.187 527.448 366.144 527.547 366.153 527.694Z" fill="#1E2944"/>
<path d="M366.515 528.073C366.612 528.112 367.124 527.129 367.179 525.373C367.204 524.503 367.088 523.451 366.726 522.344C366.541 521.791 366.295 521.226 365.976 520.675C365.638 520.135 365.224 519.411 364.171 519.318C363.623 519.31 363.177 519.75 363.031 520.121C362.858 520.5 362.829 520.823 362.771 521.146C362.687 521.796 362.714 522.43 362.816 523.016C363.021 524.191 363.529 525.16 364.072 525.855C365.193 527.265 366.33 527.559 366.35 527.467C366.437 527.328 365.481 526.83 364.618 525.47C364.193 524.799 363.807 523.91 363.675 522.882C363.607 522.37 363.602 521.826 363.686 521.277C363.757 520.685 363.967 520.205 364.189 520.259C364.465 520.248 364.943 520.68 365.183 521.145C365.478 521.635 365.718 522.138 365.908 522.632C366.28 523.626 366.454 524.58 366.514 525.39C366.631 527.014 366.366 528.036 366.515 528.073Z" fill="#1E2944"/>
<path d="M292.401 293.686C291.87 293.679 294.937 349.561 297.227 363.374C300.819 385.039 312.759 533.265 312.759 533.265H349.072L349.816 327.096L356.405 406.475L358.917 533.739L394.402 532.791L398.084 397.799C396.965 387.716 399.989 295.052 399.989 295.052L292.401 293.686Z" fill="#1E2944"/>
<path d="M308.794 85.0641C304.514 83.0764 301.835 78.691 300.259 74.2411C298.683 69.7911 297.956 65.0628 296.205 60.6799C294.901 57.4114 296.336 52.1998 293.402 50.2568C289.733 47.8256 289.774 41.3755 291.191 38.1554C292.732 34.6483 296.918 32.0432 297.202 30.9326C297.948 28.0156 295.411 24.8589 296.353 21.999C298.567 15.2793 304.038 16.1651 304.038 16.1651C306.533 13.1438 309.905 9.15097 315.378 7.73348C321.31 6.19797 330.055 5.06001 335.336 8.16954C340.616 11.2791 344.495 13.3562 346.2 19.2448" fill="#1E2944"/>
<path d="M357.621 99.5484L345.207 120.896L328.05 138.033L317.98 124.194L317.933 110.25L317.893 98.5558C317.893 98.5558 302.374 96.4128 301.919 80.9348C301.698 73.4597 302.496 58.0338 303.38 44.0789C304.333 29.0716 316.641 17.3094 331.672 17.0522L333.164 17.0274C349.28 17.692 357.719 31.7576 356.609 47.8555L357.621 99.5484Z" fill="#CE947A"/>
<path d="M307.922 55.5347C307.9 56.7025 308.872 57.6839 310.091 57.7286C311.309 57.7733 312.313 56.864 312.336 55.6962C312.356 54.5272 311.386 53.5445 310.169 53.501C308.949 53.4563 307.943 54.3669 307.922 55.5347Z" fill="#1E2944"/>
<path d="M306.593 50.7808C306.871 51.0641 308.524 49.7969 310.903 49.7621C313.278 49.6938 315.045 50.8877 315.297 50.592C315.421 50.4603 315.134 49.9448 314.364 49.4043C313.606 48.8652 312.322 48.3509 310.84 48.3832C309.36 48.4167 308.122 48.9832 307.415 49.5547C306.694 50.1286 306.455 50.6541 306.593 50.7808Z" fill="#1E2944"/>
<path d="M330.253 54.9997C330.23 56.1675 331.203 57.1489 332.422 57.1937C333.639 57.2384 334.644 56.3303 334.666 55.1612C334.686 53.9935 333.715 53.0108 332.499 52.9661C331.28 52.9213 330.274 53.832 330.253 54.9997Z" fill="#1E2944"/>
<path d="M330.278 49.7052C330.525 50.0171 332.308 48.9362 334.674 49.1599C337.042 49.3487 338.67 50.7277 338.952 50.4606C339.091 50.3438 338.863 49.8009 338.154 49.1797C337.459 48.5623 336.237 47.9113 334.761 47.7821C333.286 47.6554 331.996 48.084 331.231 48.5747C330.453 49.0679 330.156 49.5649 330.278 49.7052Z" fill="#1E2944"/>
<path d="M321.892 69.4247C321.901 69.2893 320.418 69.0595 318.018 68.7936C317.41 68.7414 316.833 68.6309 316.724 68.2172C316.573 67.7811 316.816 67.1214 317.098 66.4096C317.644 64.93 318.214 63.3796 318.814 61.7534C321.196 55.1244 322.908 49.6768 322.641 49.5836C322.373 49.4904 320.226 54.7877 317.844 61.4167C317.272 63.0516 316.724 64.6095 316.204 66.1003C315.987 66.7935 315.604 67.5848 315.929 68.4905C316.101 68.9402 316.552 69.2632 316.944 69.3613C317.334 69.4732 317.675 69.4744 317.977 69.4868C320.39 69.575 321.885 69.5601 321.892 69.4247Z" fill="#1E2944"/>
<path d="M328.919 70.9509C328.531 70.9347 328.572 73.5175 326.394 75.3885C324.22 77.2644 321.463 77.0221 321.448 77.3836C321.416 77.5464 322.069 77.8743 323.232 77.8868C324.371 77.9054 326.029 77.5103 327.361 76.3662C328.69 75.2195 329.245 73.7101 329.313 72.6491C329.394 71.5683 329.096 70.9323 328.919 70.9509Z" fill="#1E2944"/>
<path d="M330.435 41.8674C330.625 42.5283 333.015 42.3817 335.777 42.9023C338.55 43.3694 340.74 44.3346 341.149 43.7818C341.331 43.5147 340.98 42.8811 340.114 42.1954C339.256 41.5121 337.859 40.8226 336.202 40.5245C334.543 40.23 332.994 40.3928 331.953 40.7381C330.903 41.081 330.355 41.5543 330.435 41.8674Z" fill="#1E2944"/>
<path d="M307.594 44.6888C308.022 45.223 309.65 44.6341 311.619 44.5732C313.586 44.444 315.264 44.8739 315.639 44.3024C315.802 44.0254 315.531 43.4887 314.792 42.9893C314.066 42.4911 312.856 42.0961 311.504 42.1594C310.152 42.2265 308.987 42.7359 308.31 43.3011C307.623 43.8676 307.406 44.4291 307.594 44.6888Z" fill="#1E2944"/>
<path d="M345.049 18.1353C345.063 21.5653 343.481 24.968 340.852 27.1694C338.223 29.3708 334.596 30.3286 331.223 29.7112C328.608 29.2329 325.74 27.9098 323.475 29.305C321.092 30.7709 320.994 34.3637 318.881 36.1998C315.861 38.8211 311.061 36.3613 307.227 37.4981C304.267 38.3764 302.418 41.2076 300.452 43.5879C298.485 45.9694 295.54 48.2342 292.579 47.3559C292.768 44.6923 292.962 42.0027 293.753 39.4535C294.546 36.9055 296.004 34.473 298.239 33.017C299.464 32.2182 300.887 31.7312 302.025 30.8131C304.482 28.8279 305.05 25.3743 306.568 22.6039C308.524 19.0322 312.302 16.524 316.352 16.1103C319.722 15.7649 323.193 16.7774 326.477 15.9488C328.905 15.3363 331.026 13.7598 333.485 13.2927C338.276 12.3808 342.729 15.8196 346.201 19.2447" fill="#1E2944"/>
<path d="M329.72 24.9559C331.867 24.341 336.262 22.9496 337.412 21.0874C339.914 17.0399 344.324 14.2757 348.83 14.5229C353.336 14.7689 357.66 18.3294 358.583 23.0887C364.034 23.1297 369.354 26.556 371.971 31.7104C374.587 36.8661 374.395 43.5423 371.486 48.5116C370.724 49.8135 369.757 51.1142 369.737 52.6522C369.709 54.5604 371.12 56.0698 372.115 57.6476C374.828 61.9485 374.624 67.8545 372.527 72.538C370.428 77.2216 368.952 78.8664 365.964 79.8043C360.122 81.6393 365.929 93.399 356.209 93.399L354.25 58.557C354.006 58.6924 353.71 58.8079 353.339 58.8924C347.585 60.1943 346.825 48.9513 348.11 45.7362C346.027 43.8864 343.924 42.0117 342.334 39.6613C340.746 37.312 339.348 30.9067 339.686 28.0232C337.612 28.1437 328.777 25.2255 329.72 24.9559Z" fill="#1E2944"/>
<path d="M353.44 58.7838C353.702 58.6657 364.02 55.4556 363.863 66.0464C363.706 76.6359 353.11 74.2941 353.097 73.9897C353.084 73.6866 353.44 58.7838 353.44 58.7838Z" fill="#CE947A"/>
<path d="M356.389 70.0259C356.437 69.9923 356.572 70.1576 356.881 70.3054C357.184 70.4483 357.706 70.5526 358.26 70.3538C359.385 69.96 360.352 68.1972 360.431 66.289C360.474 65.3262 360.285 64.4056 359.955 63.6403C359.643 62.8602 359.151 62.3123 358.589 62.2042C358.03 62.0663 357.626 62.3968 357.493 62.6937C357.347 62.9869 357.41 63.1993 357.354 63.218C357.324 63.244 357.13 63.0366 357.221 62.6005C357.269 62.3906 357.396 62.1421 357.649 61.9433C357.906 61.7396 358.279 61.6402 358.672 61.6887C359.486 61.757 360.21 62.5198 360.573 63.3583C360.982 64.2031 361.216 65.238 361.17 66.32C361.071 68.4531 359.948 70.4334 358.411 70.8533C357.663 71.0371 357.046 70.8023 356.728 70.5476C356.406 70.2818 356.353 70.0445 356.389 70.0259Z" fill="#A56349"/>
<path d="M371.001 75.6696C369.706 77.0623 369.061 79.0363 369.287 80.9259C369.515 82.8142 370.607 84.582 372.194 85.6281C371.334 86.4107 370.142 86.8194 368.981 86.7275C368.571 88.063 370.446 88.9736 370.825 90.3178C371.053 91.1241 370.683 92.0086 370.085 92.5962C369.486 93.1826 368.694 93.523 367.905 93.8087C365.561 94.6572 363.082 95.133 360.59 95.2101C359.137 95.256 357.505 95.0846 356.568 93.974C355.788 93.0509 355.715 91.7415 355.68 90.5327C355.593 87.5238 355.505 84.5137 355.415 81.5036C355.39 80.6153 355.383 79.6612 355.885 78.9282C356.457 78.0921 357.526 77.7828 358.509 77.5331C362.785 76.4423 367.062 75.3503 371.337 74.2596" fill="#1E2944"/>
<path d="M403.531 282.055C401.878 272.366 391.958 225.578 391.958 225.578L398.1 113.805C395.265 111.915 357.596 98.2436 357.596 98.2436C357.596 98.2436 351.804 115.46 333.379 119.24C314.956 123.022 317.874 109.215 317.874 109.215C317.874 109.215 281.887 128.456 279.762 129.874C277.636 131.292 268.701 167.447 268.701 167.447L261.916 190.83L290.391 197.458C290.391 197.458 291.099 253.225 290.391 257.242C289.681 261.26 288.265 293.634 288.265 293.634L399.988 295.051C399.988 295.051 405.185 291.742 403.531 282.055" fill="#79CED2"/>
<path d="M398.099 113.805C398.099 113.805 404.987 120.57 407.292 127.258C409.598 133.947 416.746 177.769 416.746 177.769C416.746 177.769 377.553 183.304 377.553 182.613C377.553 181.921 381.011 157.472 382.163 149.861C383.317 142.25 398.099 113.805 398.099 113.805Z" fill="#79CED2"/>
<path d="M313.972 167.693L311.387 173.731H309.704L307.126 167.693H308.973L310.611 171.626L312.283 167.693H313.972Z" fill="white"/>
<path d="M318.917 170.711C318.917 169.668 318.202 168.987 317.288 168.987C316.374 168.987 315.659 169.668 315.659 170.711C315.659 171.755 316.374 172.437 317.288 172.437C318.202 172.437 318.917 171.755 318.917 170.711ZM313.934 170.711C313.934 168.9 315.357 167.572 317.288 167.572C319.219 167.572 320.642 168.9 320.642 170.711C320.642 172.523 319.219 173.851 317.288 173.851C315.357 173.851 313.934 172.523 313.934 170.711Z" fill="white"/>
<path d="M321.535 167.693H323.241V172.376H326.121V173.731H321.535V167.693Z" fill="white"/>
<path d="M326.679 171.039V167.693H328.386V170.987C328.386 172.023 328.817 172.437 329.532 172.437C330.239 172.437 330.671 172.023 330.671 170.987V167.693H332.351V171.039C332.351 172.842 331.301 173.851 329.515 173.851C327.73 173.851 326.679 172.842 326.679 171.039Z" fill="white"/>
<path d="M339.245 167.693V173.731H337.839L335.175 170.513V173.731H333.503V167.693H334.907L337.571 170.909V167.693H339.245Z" fill="white"/>
<path d="M341.732 169.047H339.878V167.693H345.283V169.047H343.439V173.73H341.732V169.047Z" fill="white"/>
<path d="M350.764 172.411V173.73H345.919V167.693H350.652V169.012H347.608V170.029H350.289V171.307H347.608V172.411H350.764Z" fill="white"/>
<path d="M356.554 172.411V173.73H351.71V167.693H356.443V169.012H353.399V170.029H356.08V171.307H353.399V172.411H356.554Z" fill="white"/>
<path d="M360.155 169.038H359.206V170.806H360.155C360.861 170.806 361.215 170.48 361.215 169.927C361.215 169.366 360.861 169.038 360.155 169.038ZM360.137 172.126H359.206V173.731H357.5V167.693H360.259C361.906 167.693 362.94 168.546 362.94 169.927C362.94 170.815 362.509 171.471 361.759 171.834L363.061 173.731H361.233L360.137 172.126Z" fill="white"/>
<path d="M290.492 216.032C290.47 216.034 290.435 215.821 290.391 215.415C290.346 214.934 290.291 214.347 290.225 213.635C290.11 212.087 289.981 209.843 289.899 207.07C289.717 201.525 289.652 193.861 289.709 185.398C289.767 176.933 289.925 169.273 290.083 163.728C290.177 161.032 290.255 158.814 290.312 157.165C290.353 156.452 290.386 155.863 290.413 155.381C290.443 154.974 290.469 154.76 290.492 154.76C290.515 154.761 290.531 154.976 290.543 155.384C290.549 155.867 290.557 156.456 290.566 157.17C290.559 158.82 290.549 161.039 290.54 163.737C290.491 169.372 290.427 176.986 290.356 185.403C290.3 193.861 290.291 201.518 290.357 207.06C290.378 209.831 290.439 212.072 290.476 213.622C290.495 214.334 290.508 214.923 290.52 215.406C290.523 215.815 290.515 216.031 290.492 216.032Z" fill="#1E2944"/>
<path d="M381.1 143.116C381.145 143.12 381.156 143.639 381.136 144.576C381.12 145.649 381.097 146.973 381.073 148.54C381.039 152.036 380.996 156.589 380.948 161.624C380.899 166.737 380.807 171.369 380.635 174.719C380.556 176.394 380.455 177.749 380.365 178.682C380.269 179.616 380.195 180.131 380.15 180.127C380.105 180.125 380.094 179.605 380.114 178.669C380.131 177.596 380.152 176.271 380.179 174.704C380.211 171.208 380.254 166.655 380.301 161.618C380.351 156.507 380.444 151.875 380.614 148.525C380.695 146.85 380.794 145.496 380.885 144.562C380.981 143.628 381.055 143.113 381.1 143.116Z" fill="#1E2944"/>
<path d="M396.911 114.741C396.982 114.941 393.193 115.882 389.408 118.677C385.59 121.428 383.536 124.747 383.368 124.619C383.302 124.579 383.724 123.702 384.661 122.441C385.592 121.182 387.086 119.574 389.027 118.154C390.973 116.74 392.958 115.809 394.442 115.307C395.929 114.801 396.892 114.668 396.911 114.741Z" fill="#1E2944"/>
<path d="M288.426 142.362C288.257 142.454 286.616 139.629 284.197 136.43C281.79 133.219 279.53 130.86 279.664 130.723C279.776 130.6 282.271 132.783 284.713 136.04C287.167 139.288 288.575 142.289 288.426 142.362Z" fill="#1E2944"/>
<path d="M357.002 212.464C357.019 212.477 356.884 212.674 356.613 213.035C356.29 213.448 355.888 213.964 355.396 214.593C354.337 215.943 352.746 217.853 350.734 220.172C346.716 224.811 340.908 231.012 334.035 237.383C327.152 243.749 320.523 249.062 315.588 252.712C313.122 254.541 311.097 255.978 309.67 256.931C309.004 257.372 308.459 257.734 308.023 258.023C307.642 258.267 307.436 258.386 307.422 258.367C307.41 258.35 307.591 258.195 307.947 257.916C308.366 257.601 308.886 257.207 309.525 256.726C310.904 255.711 312.887 254.219 315.312 252.348C320.167 248.611 326.731 243.257 333.595 236.908C340.45 230.554 346.294 224.421 350.393 219.868C352.444 217.593 354.083 215.731 355.203 214.432C355.732 213.834 356.165 213.345 356.511 212.952C356.817 212.619 356.984 212.45 357.002 212.464Z" fill="#1E2944"/>
<path d="M404.214 355.657L419.006 310.34C421.221 303.554 423.643 296.443 428.935 291.654C432.025 288.86 436.732 287.055 440.33 289.157C442.775 290.585 444.043 293.506 444.208 296.335C444.373 299.164 443.604 301.955 442.819 304.678C436.865 325.336 429.617 345.595 422.077 365.728C422.33 365.264 422.585 364.799 422.839 364.334" fill="#79CED2"/>
<path d="M424.018 345.328C423.958 345.528 421.673 345.017 419.026 343.891C416.376 342.772 414.419 341.486 414.522 341.305C414.628 341.11 416.723 342.073 419.331 343.173C421.934 344.28 424.084 345.115 424.018 345.328Z" fill="#1E2944"/>
<path d="M428.905 334.369C428.811 334.566 426.373 333.594 423.373 332.397C420.374 331.196 417.936 330.222 418.005 330.012C418.068 329.812 420.636 330.46 423.661 331.673C426.688 332.88 428.997 334.179 428.905 334.369Z" fill="#1E2944"/>
<path d="M433.514 325.313C433.384 325.501 431.021 323.984 427.867 322.631C424.72 321.258 421.998 320.576 422.045 320.351C422.072 320.154 424.939 320.506 428.176 321.916C431.421 323.309 433.64 325.156 433.514 325.313Z" fill="#1E2944"/>
<path d="M436.404 313.903C436.252 314.078 434.223 312.401 431.368 310.944C428.525 309.463 425.985 308.782 426.037 308.556C426.064 308.36 428.772 308.715 431.725 310.251C434.688 311.766 436.55 313.768 436.404 313.903Z" fill="#1E2944"/>
<path d="M403.921 325.664H399.496V316.9H403.921V325.664Z" fill="#1E2944"/>
<path d="M398.978 342.759V324.49H404.37V339.73C404.37 339.73 410.045 339.886 410.751 342.388C412.302 347.873 411.614 360.224 411.614 360.224L398.978 342.759Z" fill="#455A64"/>
<path d="M431.518 339.77C429.071 341.85 425.411 340.828 422.204 340.671C418.338 340.478 414.565 341.725 410.751 342.387C406.938 343.051 402.675 343.022 399.612 340.657C397.281 338.858 396.017 335.944 395.633 333.024C395.249 330.106 395.652 327.144 396.115 324.237C396.473 321.995 396.876 319.729 397.831 317.67C398.786 315.611 400.367 313.751 402.479 312.923C404.948 311.684 413.925 310.851 417.368 310.336C420.422 311.805 423.079 314.153 425.171 316.852C428.061 320.58 430.002 324.942 431.809 329.301C432.526 331.033 433.236 332.807 433.363 334.675C433.491 336.545 432.946 338.556 431.518 339.77ZM445.605 391.32C444.074 382.14 441.728 373.058 441.29 363.763C440.99 357.387 441.593 350.964 440.798 344.631C439.841 337.006 436.898 329.794 433.983 322.684C432.091 318.068 430.039 313.238 426.099 310.178C423.752 308.355 420.823 307.416 417.859 307.306L417.857 307.276C412.438 305.06 397.59 304.425 392.894 314.381C390.397 319.678 390.108 325.706 388.687 331.388C386.771 339.046 388.143 341.561 385.644 349.05C380.307 365.035 372.231 384.88 374.592 401.564C375.052 404.812 380.454 410.149 382.289 412.867C384.936 416.781 389.784 418.529 394.403 419.517C407.478 422.31 421.427 420.834 433.628 415.368C438.019 413.4 442.402 410.71 444.619 406.438C446.988 401.873 446.449 396.392 445.605 391.32" fill="#FAFAFA"/>
<path d="M431.518 339.77C431.457 339.73 432.305 339.19 432.877 337.591C433.149 336.802 433.327 335.761 433.211 334.558C433.105 333.351 432.706 332.005 432.12 330.557C430.906 327.671 429.478 324.13 427.286 320.431C425.109 316.771 421.927 312.877 417.239 310.604L417.413 310.631C415.091 310.938 412.659 311.26 410.148 311.592C408.898 311.769 407.629 311.959 406.352 312.198C405.091 312.444 403.768 312.702 402.623 313.21L402.597 313.223C400.693 313.962 399.134 315.683 398.186 317.678C397.35 319.427 396.933 321.335 396.609 323.226C396.292 325.124 395.988 327.001 395.859 328.847C395.731 330.69 395.781 332.517 396.162 334.237C396.541 335.955 397.241 337.569 398.262 338.888C399.281 340.21 400.652 341.169 402.134 341.722C403.62 342.273 405.181 342.481 406.684 342.488C409.707 342.513 412.477 341.79 415.022 341.271C417.565 340.729 419.931 340.376 422.022 340.483C424.102 340.605 425.849 340.934 427.294 340.932C428.737 340.966 429.835 340.674 430.517 340.355C431.196 340.018 431.493 339.738 431.518 339.77C431.518 339.77 431.254 340.088 430.576 340.471C429.896 340.837 428.764 341.18 427.295 341.184C425.825 341.223 424.049 340.929 422.009 340.845C419.962 340.775 417.645 341.149 415.118 341.718C412.592 342.261 409.796 343.025 406.681 343.024C405.135 343.029 403.51 342.827 401.935 342.255C400.367 341.682 398.883 340.657 397.793 339.256C395.571 336.436 394.93 332.542 395.227 328.804C395.355 326.914 395.659 325.027 395.975 323.117C396.302 321.208 396.723 319.241 397.604 317.398C398.602 315.298 400.26 313.441 402.362 312.623L402.335 312.635C403.641 312.06 404.946 311.826 406.237 311.573C407.528 311.335 408.805 311.146 410.063 310.971C412.573 310.65 415.002 310.338 417.323 310.04L417.419 310.028L417.498 310.066C422.33 312.436 425.545 316.452 427.716 320.175C429.903 323.945 431.286 327.505 432.459 330.425C433.028 331.897 433.412 333.288 433.493 334.535C433.584 335.783 433.368 336.853 433.058 337.658C432.745 338.466 432.338 339.01 432.032 339.331C431.723 339.654 431.518 339.77 431.518 339.77Z" fill="#1E2944"/>
<path d="M445.605 391.32C445.605 391.32 445.848 392.379 446.121 394.426C446.252 395.451 446.392 396.725 446.416 398.239C446.428 399.749 446.364 401.516 445.879 403.434C445.42 405.351 444.471 407.409 442.89 409.234C441.326 411.068 439.21 412.669 436.762 414.016C431.831 416.64 425.802 418.871 418.879 420.121C411.97 421.348 404.144 421.61 396.001 420.097C393.967 419.741 391.904 419.262 389.876 418.544C387.856 417.824 385.855 416.829 384.152 415.363C383.301 414.638 382.548 413.759 381.915 412.835C381.281 411.948 380.558 411.089 379.84 410.221C378.405 408.481 376.906 406.736 375.649 404.747C375.051 403.749 374.422 402.68 374.277 401.429C374.173 400.252 373.995 399.073 373.949 397.881C373.841 395.497 373.863 393.079 374.077 390.652C374.473 385.793 375.421 380.897 376.665 376.002C377.913 371.105 379.459 366.2 381.125 361.265C381.97 358.801 382.819 356.32 383.676 353.822C384.514 351.324 385.453 348.824 386.126 346.27C386.811 343.672 387.01 341.016 387.219 338.343C387.422 335.669 387.928 333.008 388.575 330.466C389.746 325.375 390.164 320.107 392.141 315.305C392.395 314.711 392.65 314.12 392.997 313.565C393.325 313.004 393.608 312.415 394.045 311.935C394.815 310.896 395.755 309.994 396.782 309.243C398.839 307.722 401.234 306.788 403.645 306.246C406.065 305.704 408.528 305.539 410.939 305.653C413.348 305.783 415.731 306.15 417.97 307L418.152 307.07L418.155 307.27L418.157 307.3L417.87 307.009C421.375 307.133 424.821 308.45 427.274 310.807C429.772 313.116 431.37 316.074 432.693 318.956C435.188 324.808 437.505 330.397 439.15 335.883C439.958 338.625 440.586 341.338 440.944 343.999C441.318 346.661 441.41 349.255 441.44 351.741C441.466 356.715 441.265 361.286 441.569 365.413C441.861 369.538 442.423 373.21 442.969 376.397C443.519 379.588 444.046 382.298 444.455 384.507C444.868 386.714 445.163 388.417 445.353 389.567C445.438 390.127 445.506 390.56 445.554 390.874C445.595 391.169 445.605 391.32 445.605 391.32C445.605 391.32 445.563 391.173 445.504 390.882C445.445 390.57 445.363 390.141 445.257 389.585C445.027 388.417 444.697 386.731 444.267 384.543C443.829 382.341 443.273 379.635 442.694 376.446C442.119 373.258 441.529 369.582 441.21 365.438C440.877 361.289 441.056 356.699 441.007 351.746C440.967 349.269 440.864 346.695 440.481 344.063C440.116 341.431 439.485 338.745 438.673 336.024C437.025 330.593 434.686 324.996 432.19 319.186C430.876 316.334 429.295 313.445 426.885 311.229C424.524 308.973 421.231 307.721 417.847 307.603L417.567 307.593L417.56 307.312V307.282L417.744 307.55C415.615 306.747 413.266 306.38 410.911 306.26C408.546 306.152 406.136 306.318 403.779 306.847C401.432 307.379 399.12 308.29 397.153 309.746C396.171 310.466 395.278 311.325 394.548 312.315C394.129 312.771 393.864 313.335 393.551 313.868C393.223 314.391 392.973 314.967 392.727 315.546C390.8 320.225 390.379 325.454 389.202 330.61C388.552 333.17 388.067 335.741 387.862 338.399C387.657 341.045 387.453 343.78 386.752 346.428C386.061 349.045 385.126 351.53 384.287 354.033C383.431 356.529 382.579 359.009 381.735 361.471C380.069 366.398 378.524 371.286 377.28 376.159C376.038 381.029 375.092 385.89 374.694 390.701C374.478 393.105 374.453 395.494 374.555 397.85C374.599 399.026 374.772 400.188 374.872 401.346C374.992 402.448 375.573 403.461 376.154 404.432C377.371 406.365 378.857 408.109 380.288 409.848C381.006 410.72 381.73 411.58 382.387 412.505C383.012 413.417 383.706 414.228 384.524 414.933C386.15 416.34 388.087 417.313 390.062 418.024C392.047 418.732 394.08 419.209 396.099 419.569C404.168 421.094 411.934 420.86 418.799 419.67C425.674 418.461 431.688 416.267 436.587 413.699C439.017 412.381 441.11 410.818 442.658 409.033C444.219 407.255 445.164 405.254 445.635 403.372C446.561 399.574 446.175 396.471 445.992 394.442C445.866 393.435 445.769 392.662 445.699 392.115C445.627 391.591 445.605 391.32 445.605 391.32Z" fill="#1E2944"/>
<path d="M431.518 339.77C431.454 339.725 432.296 339.179 432.858 337.585C433.126 336.796 433.303 335.758 433.183 334.561C433.074 333.358 432.674 332.017 432.086 330.571C430.867 327.687 429.434 324.15 427.241 320.457C425.065 316.804 421.886 312.922 417.212 310.66L417.421 310.692C415.098 311 412.668 311.323 410.158 311.655C408.907 311.833 407.639 312.024 406.365 312.261C405.104 312.507 403.782 312.768 402.654 313.269L402.621 313.285C400.738 314.015 399.19 315.722 398.247 317.706C397.415 319.447 396.999 321.349 396.673 323.236C396.358 325.135 396.053 327.01 395.924 328.851C395.626 332.502 396.244 336.201 398.31 338.851C399.322 340.162 400.681 341.115 402.155 341.667C403.633 342.216 405.186 342.425 406.685 342.432C409.698 342.461 412.466 341.741 415.012 341.225C417.557 340.685 419.927 340.335 422.023 340.447C424.108 340.571 425.852 340.904 427.294 340.905C428.734 340.944 429.829 340.657 430.511 340.343C431.19 340.011 431.491 339.734 431.518 339.77C431.518 339.77 431.26 340.095 430.582 340.482C429.903 340.854 428.768 341.201 427.295 341.209C425.822 341.253 424.044 340.961 422.007 340.883C419.966 340.816 417.654 341.194 415.128 341.764C412.605 342.309 409.806 343.077 406.681 343.079C405.13 343.084 403.499 342.884 401.914 342.31C400.337 341.735 398.842 340.703 397.745 339.293C395.508 336.458 394.866 332.546 395.163 328.799C395.29 326.907 395.593 325.017 395.909 323.105C396.237 321.195 396.66 319.221 397.544 317.37C398.548 315.258 400.215 313.388 402.339 312.563L402.306 312.577C403.628 311.995 404.93 311.763 406.224 311.508C407.517 311.271 408.795 311.081 410.054 310.908C412.564 310.587 414.993 310.276 417.315 309.979L417.43 309.964L417.525 310.011C422.371 312.392 425.591 316.419 427.761 320.147C429.947 323.925 431.326 327.487 432.494 330.412C433.06 331.885 433.444 333.28 433.521 334.532C433.611 335.786 433.391 336.859 433.077 337.665C432.76 338.474 432.349 339.018 432.041 339.338C431.728 339.659 431.518 339.77 431.518 339.77Z" fill="#1E2944"/>
<path d="M435.552 378.676C435.296 377.04 434.302 375.46 432.783 374.805C430.473 373.81 427.763 375.193 426.133 377.107C424.505 379.023 423.555 381.427 422.045 383.437C419.441 386.907 415.133 389.027 410.797 388.975C405.514 388.909 400.228 385.854 395.179 387.415C393.447 387.95 391.723 389.312 391.707 391.125C391.697 392.357 392.473 393.449 393.309 394.349C395.806 397.034 399.184 398.885 402.79 399.543C409.233 399.316 415.285 397.86 420.981 395.292C427.615 392.468 432.498 388.956 434.776 383.52C435.416 381.993 435.809 380.312 435.552 378.676Z" fill="#E0E0E0"/>
<path d="M434.685 386.122C434.721 386.161 434.341 386.575 433.618 387.293C432.904 388.021 431.791 388.995 430.352 390.114C427.481 392.359 423.135 395.036 417.893 396.971C412.641 398.89 407.597 399.66 403.954 399.807C402.133 399.883 400.655 399.863 399.64 399.768C398.625 399.689 398.067 399.619 398.071 399.566C398.077 399.424 400.322 399.549 403.92 399.255C407.511 398.972 412.456 398.127 417.624 396.24C422.785 394.333 427.101 391.78 430.023 389.671C432.954 387.566 434.588 386.018 434.685 386.122Z" fill="#1E2944"/>
<path d="M432.857 358.072C432.909 358.081 432.842 358.783 432.67 360.046C432.493 361.307 432.218 363.132 431.768 365.371C431.312 367.607 430.677 370.267 429.605 373.111C428.528 375.945 426.981 378.972 424.701 381.675C422.439 384.382 419.622 386.431 416.746 387.519C413.88 388.636 411.08 388.904 408.785 388.807C406.479 388.72 404.656 388.264 403.438 387.874C402.827 387.677 402.364 387.499 402.058 387.354C401.75 387.217 401.594 387.134 401.604 387.108C401.646 386.93 404.279 388.182 408.799 388.257C411.038 388.282 413.74 387.961 416.482 386.851C419.227 385.77 421.913 383.792 424.105 381.172C428.534 375.873 430.177 369.61 431.229 365.253C431.744 363.044 432.103 361.238 432.37 359.994C432.635 358.748 432.804 358.062 432.857 358.072Z" fill="#1E2944"/>
<path d="M392.721 379.812C392.662 379.875 391.812 379.215 390.752 377.846C389.694 376.486 388.498 374.363 387.807 371.8C387.126 369.233 387.101 366.796 387.341 365.089C387.575 363.375 387.983 362.378 388.066 362.402C388.318 362.428 387.185 366.626 388.56 371.599C389.85 376.592 392.929 379.664 392.721 379.812Z" fill="#1E2944"/>
<path d="M394.63 342.528C394.533 342.546 394.06 340.737 393.505 337.761C392.975 334.793 392.34 330.594 392.785 325.935C393.232 321.27 394.967 317.244 396.829 314.813C397.748 313.586 398.636 312.712 399.303 312.179C399.966 311.644 400.374 311.405 400.402 311.443C400.502 311.557 398.95 312.66 397.279 315.132C395.587 317.571 393.997 321.479 393.56 326.012C393.126 330.548 393.66 334.698 394.049 337.675C394.461 340.657 394.745 342.506 394.63 342.528Z" fill="#1E2944"/>
<path d="M384.486 182.093L394.232 225.917L397.148 294.724L418.382 293.145L421.466 223.02L414.568 178.074L384.486 182.093Z" fill="#CE947A"/>
<path d="M399.41 320.065C398.546 320.521 397.482 319.958 397.228 319.014C396.424 316.01 394.331 307.884 394.388 304.804C394.46 300.992 396.642 286.29 396.642 286.29L418.786 286.439L424.343 306.657C424.343 306.657 422.892 314.96 421.444 315.44C420.704 315.686 418.638 315.984 418.638 315.984L418.03 318.534C416.794 322.423 412.177 321.357 412.177 321.357C412.177 321.357 411.497 323.987 409.208 324.722C406.791 325.496 405.32 323.834 405.32 323.834C405.32 323.834 402.292 325.616 400.964 324.14C399.634 322.665 400.004 319.476 400.004 319.476C399.9 319.721 399.683 319.921 399.41 320.065Z" fill="#CE947A"/>
<path d="M400.057 321.14C400.085 321.14 400.103 320.899 400.111 320.46C400.117 320.023 400.094 319.388 400.026 318.611C399.898 317.05 399.575 314.917 399.218 312.572C398.863 310.224 398.599 308.093 398.575 306.548C398.532 305 398.77 304.064 398.701 304.047C398.673 304.038 398.599 304.268 398.487 304.697C398.393 305.125 398.309 305.76 398.283 306.546C398.232 308.121 398.456 310.28 398.812 312.631C399.169 314.984 399.536 317.101 399.735 318.64C399.945 320.181 399.992 321.14 400.057 321.14Z" fill="#A56349"/>
<path d="M405.198 323.862C405.248 323.872 405.427 323.264 405.551 322.247C405.683 321.235 405.73 319.82 405.652 318.268C405.575 316.717 405.416 315.321 405.285 314.315C405.155 313.31 405.048 312.691 404.991 312.695C404.858 312.706 405.064 315.213 405.242 318.288C405.319 319.826 405.316 321.218 405.262 322.224C405.212 323.229 405.136 323.851 405.198 323.862Z" fill="#A56349"/>
<path d="M412.226 321.391C412.331 321.406 412.654 319.289 412.557 316.659C412.469 314.029 412 311.942 411.896 311.962C411.776 311.983 412.059 314.076 412.146 316.674C412.242 319.27 412.105 321.38 412.226 321.391Z" fill="#A56349"/>
<path d="M418.03 318.534C418.136 318.549 418.422 316.915 418.376 314.879C418.338 312.84 417.982 311.22 417.877 311.24C417.759 311.259 417.928 312.881 417.965 314.887C418.011 316.892 417.91 318.522 418.03 318.534Z" fill="#A56349"/>
<path d="M411.578 308.929C411.629 308.932 411.705 308.673 411.634 308.252C411.568 307.837 411.32 307.259 410.806 306.831C410.293 306.402 409.681 306.261 409.261 306.269C408.834 306.276 408.594 306.396 408.604 306.446C408.605 306.561 409.652 306.405 410.543 307.146C411.432 307.889 411.464 308.949 411.578 308.929Z" fill="#A56349"/>
<path d="M417.87 306.816C417.982 306.805 417.818 305.981 417.012 305.453C416.211 304.917 415.39 305.086 415.422 305.194C415.427 305.313 416.118 305.341 416.785 305.797C417.464 306.232 417.758 306.857 417.87 306.816Z" fill="#A56349"/>
<path d="M404.243 307.898C404.361 307.914 404.39 307.304 403.859 306.892C403.333 306.474 402.749 306.647 402.791 306.756C402.807 306.872 403.228 306.907 403.605 307.216C403.995 307.509 404.128 307.909 404.243 307.898Z" fill="#A56349"/>
<path d="M396.643 286.291C396.637 286.289 396.622 286.352 396.598 286.472C396.572 286.614 396.541 286.791 396.501 287.014C396.421 287.517 396.308 288.219 396.165 289.113C395.884 290.946 395.487 293.617 395.044 296.972C394.825 298.649 394.589 300.499 394.393 302.505C394.312 303.509 394.173 304.552 394.256 305.653C394.333 306.742 394.507 307.849 394.707 308.98C395.119 311.244 395.662 313.609 396.272 316.072C396.427 316.686 396.586 317.308 396.745 317.935C396.827 318.248 396.91 318.564 396.993 318.879C397.063 319.19 397.21 319.576 397.468 319.833C397.954 320.376 398.82 320.63 399.536 320.215C399.684 320.093 399.697 320.002 399.74 319.91C399.774 319.82 399.798 319.733 399.821 319.646C399.863 319.471 399.89 319.299 399.915 319.128C399.962 318.779 399.995 318.444 399.995 318.077C399.993 317.966 399.905 317.878 399.795 317.878C399.687 317.878 399.598 317.967 399.596 318.075C399.576 318.961 399.605 319.851 399.699 320.751C399.797 321.651 399.939 322.566 400.31 323.45C400.502 323.881 400.771 324.332 401.223 324.61C401.666 324.885 402.194 324.95 402.679 324.919C403.665 324.841 404.566 324.476 405.422 324.011L405.165 323.971C405.522 324.342 405.959 324.624 406.449 324.831C407.687 325.352 409.129 325.168 410.219 324.462C411.313 323.739 412.008 322.607 412.375 321.409L412.133 321.555C413.382 321.787 414.666 321.741 415.83 321.267C417.011 320.809 417.86 319.735 418.216 318.593L418.221 318.58C418.426 317.716 418.627 316.867 418.826 316.028L418.665 316.176C419.217 316.093 419.758 316.003 420.296 315.903C420.566 315.852 420.832 315.796 421.099 315.731C421.233 315.7 421.367 315.664 421.503 315.619C421.67 315.552 421.805 315.449 421.902 315.337C422.293 314.889 422.489 314.386 422.694 313.896C422.889 313.402 423.051 312.906 423.2 312.412C423.78 310.438 424.175 308.517 424.507 306.685C424.511 306.66 424.51 306.635 424.505 306.611C422.792 300.498 421.381 295.456 420.39 291.916C419.893 290.182 419.502 288.816 419.227 287.857C419.093 287.41 418.988 287.058 418.911 286.796C418.835 286.558 418.793 286.436 418.785 286.438C418.777 286.44 418.803 286.566 418.861 286.81C418.927 287.076 419.017 287.431 419.13 287.883C419.384 288.849 419.746 290.221 420.207 291.967C421.164 295.516 422.528 300.57 424.183 306.701L424.179 306.627C423.838 308.442 423.432 310.359 422.851 312.307C422.702 312.793 422.54 313.281 422.352 313.758C422.158 314.228 421.944 314.725 421.628 315.08C421.551 315.17 421.462 315.224 421.384 315.262C421.264 315.299 421.14 315.334 421.01 315.363C420.753 315.424 420.491 315.478 420.226 315.526C419.694 315.624 419.154 315.714 418.61 315.792C418.529 315.804 418.467 315.865 418.45 315.939C418.249 316.776 418.045 317.626 417.838 318.488L417.841 318.474C417.501 319.533 416.75 320.478 415.675 320.897C414.62 321.332 413.377 321.375 412.224 321.158C412.117 321.139 412.013 321.204 411.981 321.307C411.647 322.397 410.978 323.479 409.996 324.117C409.02 324.75 407.702 324.919 406.607 324.452C406.175 324.273 405.759 323.996 405.472 323.698C405.405 323.626 405.298 323.612 405.214 323.657C404.419 324.092 403.531 324.445 402.654 324.511C402.219 324.538 401.781 324.476 401.436 324.261C401.092 324.052 400.86 323.682 400.683 323.286C400.342 322.479 400.196 321.585 400.1 320.709C400.007 319.831 399.978 318.948 399.995 318.089L399.596 318.088C399.597 318.405 399.566 318.747 399.521 319.072C399.5 319.236 399.473 319.397 399.436 319.551C399.418 319.699 399.305 319.867 399.333 319.917C399.078 319.984 398.78 320.079 398.497 320C398.215 319.94 397.949 319.785 397.753 319.569C397.545 319.349 397.444 319.102 397.366 318.78C397.283 318.464 397.198 318.151 397.116 317.838C396.955 317.213 396.794 316.593 396.637 315.98C396.018 313.526 395.468 311.166 395.046 308.918C394.841 307.795 394.661 306.696 394.58 305.631C394.492 304.576 394.621 303.532 394.695 302.533C394.875 300.531 395.094 298.683 395.296 297.003C395.722 293.669 396.062 290.998 396.301 289.133C396.416 288.232 396.506 287.529 396.571 287.024C396.597 286.8 396.617 286.62 396.633 286.477C396.645 286.355 396.649 286.291 396.643 286.291Z" fill="#A56349"/>
<path d="M317.875 98.5464C317.875 98.5464 327.668 99.175 337.95 92.464C337.95 92.464 333.372 103.688 317.907 102.558L317.875 98.5464Z" fill="#A56349"/>
<g opacity="0.300003">
<g opacity="0.300003">
<path opacity="0.300003" d="M380.151 182.672L384.486 182.093L392.392 217.654L391.957 225.578L394.785 238.993L395.73 261.249C395.73 261.249 385.059 227.785 384.486 219.798C383.87 211.218 380.151 182.672 380.151 182.672Z" fill="black"/>
</g>
</g>
<path d="M186.356 532.52C186.356 532.52 187.761 541.345 187.708 542.891L193.956 548.247L209.8 544.705L211.113 531.741L186.356 532.52Z" fill="#F4C3AE"/>
<path d="M210.096 542.765L210.118 544.172C210.118 544.172 234.072 553.463 234.381 557.985L187.042 558.313L187.577 542.549C194.637 545.761 202.005 546.078 210.096 542.765Z" fill="#79CED2"/>
<g opacity="0.600006">
<g opacity="0.600006">
<path opacity="0.600006" d="M187.041 558.313L187.17 554.521L232.494 555.594C232.494 555.594 234.609 556.499 234.381 557.985L187.041 558.313Z" fill="white"/>
</g>
</g>
<path d="M210.285 544.304C210.279 544.535 209.122 544.647 207.991 545.399C206.84 546.121 206.26 547.126 206.047 547.036C205.833 546.993 206.168 545.608 207.555 544.722C208.934 543.824 210.333 544.09 210.285 544.304Z" fill="#1E2944"/>
<path d="M215.264 546.324C215.319 546.547 214.32 546.947 213.542 547.931C212.734 548.89 212.543 549.95 212.313 549.941C212.096 549.979 211.927 548.627 212.918 547.422C213.898 546.208 215.258 546.103 215.264 546.324Z" fill="#1E2944"/>
<path d="M218.125 552.249C217.915 552.3 217.585 551.146 218.171 549.876C218.746 548.6 219.833 548.093 219.932 548.286C220.064 548.475 219.367 549.159 218.903 550.209C218.413 551.249 218.355 552.224 218.125 552.249Z" fill="#1E2944"/>
<path d="M237.907 532.52C237.907 532.52 239.312 541.345 239.259 542.891L245.508 548.247L261.351 544.705L262.664 531.741L237.907 532.52Z" fill="#F4C3AE"/>
<path d="M261.646 542.765L261.669 544.172C261.669 544.172 285.624 553.463 285.932 557.985L238.593 558.313L239.128 542.549C246.187 545.761 253.556 546.078 261.646 542.765Z" fill="#79CED2"/>
<g opacity="0.600006">
<g opacity="0.600006">
<path opacity="0.600006" d="M238.592 558.313L238.721 554.521L284.046 555.594C284.046 555.594 286.16 556.499 285.931 557.985L238.592 558.313Z" fill="white"/>
</g>
</g>
<path d="M261.836 544.304C261.829 544.535 260.675 544.647 259.542 545.399C258.391 546.121 257.811 547.126 257.597 547.036C257.384 546.993 257.719 545.608 259.106 544.722C260.485 543.824 261.884 544.09 261.836 544.304Z" fill="#1E2944"/>
<path d="M266.815 546.324C266.869 546.547 265.871 546.947 265.092 547.931C264.285 548.89 264.095 549.95 263.864 549.941C263.647 549.979 263.478 548.627 264.469 547.422C265.449 546.208 266.809 546.103 266.815 546.324Z" fill="#1E2944"/>
<path d="M269.676 552.249C269.466 552.3 269.136 551.146 269.722 549.876C270.297 548.6 271.384 548.093 271.483 548.286C271.614 548.475 270.918 549.159 270.453 550.209C269.964 551.249 269.906 552.224 269.676 552.249Z" fill="#1E2944"/>
<path d="M277.731 311.371H173.673L162.909 360.671L184.409 535.934H217.689L225.296 381.564L233.317 535.934H268.989L283.979 362.614L277.731 311.371Z" fill="#1E2944"/>
<path d="M198.175 533.486C197.996 533.487 197.544 502.598 197.164 464.501C196.784 426.39 196.622 395.505 196.8 395.504C196.978 395.501 197.431 426.384 197.811 464.495C198.19 502.592 198.354 533.483 198.175 533.486Z" fill="#455A64"/>
<path d="M251.468 532.898C251.457 532.897 251.462 532.767 251.482 532.511C251.509 532.221 251.544 531.849 251.588 531.382C251.701 530.347 251.857 528.896 252.057 527.048C252.489 523.29 253.06 517.843 253.701 511.108C254.353 504.374 255.005 496.344 255.601 487.421C256.166 478.494 256.658 468.673 256.957 458.356C257.234 448.033 257.29 438.198 257.223 429.253C257.125 420.308 256.922 412.254 256.647 405.494C256.382 398.734 256.115 393.265 255.893 389.488C255.796 387.632 255.72 386.176 255.666 385.136C255.648 384.667 255.635 384.293 255.623 384.001C255.617 383.747 255.62 383.615 255.632 383.615C255.642 383.614 255.662 383.743 255.689 383.998C255.717 384.287 255.753 384.66 255.796 385.127C255.879 386.164 255.996 387.619 256.144 389.471C256.443 393.244 256.78 398.713 257.104 405.475C257.438 412.236 257.687 420.295 257.819 429.245C257.918 438.198 257.881 448.043 257.604 458.374C257.305 468.699 256.793 478.528 256.196 487.461C255.565 496.389 254.867 504.421 254.157 511.153C253.457 517.886 252.816 523.328 252.307 527.078C252.056 528.921 251.858 530.367 251.718 531.398C251.647 531.862 251.591 532.231 251.548 532.518C251.507 532.77 251.48 532.9 251.468 532.898Z" fill="#455A64"/>
<path d="M221.422 153.23L181.721 155.375L178.471 170.359C178.471 170.359 189.443 179.164 190.528 179.527C191.614 179.889 216.572 183.387 216.572 183.387C216.572 183.387 243.462 170.842 243.101 170.963C242.738 171.083 221.422 153.23 221.422 153.23Z" fill="#F4C3AE"/>
<path d="M186.835 83.8381C184.566 81.4851 180.751 81.9361 177.544 82.5635C175.675 82.9287 173.773 83.3039 172.092 84.1996C170.411 85.0928 168.95 86.5998 168.583 88.4682C168.023 91.3082 170.046 94.1382 169.677 97.0092C169.416 99.0304 167.976 100.749 166.253 101.838C164.531 102.928 162.535 103.487 160.572 104.032C162.503 106.512 165.523 108.108 168.659 108.307C168.48 109.345 167.157 109.631 166.114 109.77C165.071 109.908 163.76 110.496 163.914 111.537C163.989 112.056 164.43 112.435 164.85 112.752C170.289 116.856 177.211 118.95 184.013 118.546C187.218 118.356 190.608 117.505 192.742 115.104C194.734 112.861 195.267 109.673 195.241 106.674C195.172 98.4689 191.365 90.3677 185.094 85.0804" fill="#E0E0E0"/>
<path d="M185.073 85.3213C184.088 81.244 185.094 76.7344 187.719 73.4634C190.345 70.1923 194.528 68.2344 198.72 68.3152C200.202 68.3438 201.749 68.6009 203.116 68.0307C204.37 67.5077 205.247 66.3796 206.252 65.4665C209.154 62.8303 213.203 61.9458 217.074 61.3333C222.569 60.4637 228.329 59.9631 233.583 61.793C238.837 63.6217 243.446 68.3425 243.519 73.9069C243.551 76.3505 242.735 78.7295 242.599 81.1682C242.463 83.6081 243.269 86.3984 245.48 87.4357C246.903 88.1028 248.768 87.9848 249.786 89.1824C250.663 90.216 250.46 91.8472 249.689 92.9616C248.918 94.0759 247.71 94.794 246.54 95.4785C248.585 95.886 250.032 97.9867 250.057 100.074C250.083 102.16 248.899 104.132 247.281 105.449C245.663 106.766 243.65 107.505 241.626 108.011C232.032 110.404 221.832 107.932 212.806 103.894C202.879 99.4527 193.807 93.1106 186.227 85.3101C186.48 85.0169 186.733 84.7237 186.988 84.4305" fill="#E0E0E0"/>
<path d="M182.615 89.9442C182.914 89.0609 185.511 83.1115 186.442 83.1761C187.107 83.222 185.562 88.7454 185.915 89.3119C189.277 94.716 190.342 101.304 190.017 107.661C189.693 114.019 188.542 119.762 186.862 125.903" fill="#E0E0E0"/>
<path d="M186.862 125.903C184.788 120.106 182.737 114.266 181.69 108.199Z" fill="#E0E0E0"/>
<path d="M204.974 176.705C195.433 176.786 187.577 169.224 187.29 159.682L185.56 102.264C184.605 86.8532 192.773 73.4523 208.198 72.9231L209.626 72.9579C224 73.3045 235.702 84.6307 236.513 98.9919C237.267 112.353 237.929 127.125 237.668 134.279C237.129 149.085 222.266 151.031 222.266 151.031C222.233 151.033 222.284 154.465 222.367 158.812C222.553 168.578 214.737 176.623 204.974 176.705Z" fill="#F4C3AE"/>
<path d="M222.269 151.21C222.269 151.21 212.925 151.533 203.129 145.044C203.129 145.044 207.571 155.929 222.375 154.952L222.269 151.21Z" fill="#CC937F"/>
<path d="M211.892 127.273C212.758 126.348 214.204 126.022 215.382 126.485C216.561 126.947 217.4 128.171 217.406 129.437C217.413 130.704 216.588 131.935 215.413 132.411C214.606 132.738 213.686 132.719 212.848 132.483C212.211 132.304 211.587 131.986 211.187 131.46C210.611 130.704 210.596 129.627 210.944 128.743C211.294 127.859 211.636 127.526 212.339 126.885" fill="#CC937F"/>
<path d="M232.768 108.93C232.781 110.048 231.844 110.98 230.678 111.015C229.514 111.05 228.557 110.174 228.545 109.056C228.533 107.938 229.468 107.005 230.632 106.969C231.799 106.935 232.756 107.812 232.768 108.93Z" fill="#1E2944"/>
<path d="M233.22 106.205C232.952 106.475 231.378 105.25 229.104 105.202C226.831 105.12 225.134 106.251 224.893 105.967C224.775 105.84 225.054 105.348 225.794 104.836C226.522 104.327 227.755 103.842 229.172 103.883C230.589 103.926 231.768 104.475 232.441 105.026C233.127 105.58 233.352 106.085 233.22 106.205Z" fill="#1E2944"/>
<path d="M211.464 108.93C211.476 110.048 210.54 110.98 209.374 111.015C208.209 111.051 207.253 110.174 207.241 109.056C207.228 107.938 208.163 107.005 209.328 106.97C210.495 106.935 211.452 107.813 211.464 108.93Z" fill="#1E2944"/>
<path d="M211.323 106.223C211.054 106.493 209.479 105.268 207.206 105.219C204.933 105.138 203.236 106.269 202.995 105.984C202.877 105.858 203.154 105.367 203.896 104.854C204.624 104.345 205.857 103.861 207.274 103.901C208.691 103.943 209.87 104.494 210.543 105.044C211.228 105.598 211.454 106.102 211.323 106.223Z" fill="#1E2944"/>
<path d="M218.637 123.311C218.63 123.182 220.049 122.971 222.347 122.733C222.931 122.687 223.482 122.585 223.59 122.19C223.737 121.774 223.51 121.141 223.244 120.459C222.731 119.039 222.196 117.55 221.633 115.991C219.398 109.633 217.796 104.41 218.052 104.322C218.309 104.235 220.328 109.316 222.563 115.676C223.1 117.243 223.613 118.738 224.101 120.168C224.304 120.833 224.665 121.592 224.348 122.456C224.182 122.886 223.747 123.192 223.372 123.282C222.997 123.387 222.67 123.386 222.382 123.395C220.074 123.465 218.642 123.44 218.637 123.311Z" fill="#1E2944"/>
<path d="M211.904 124.724C212.274 124.711 212.219 127.182 214.29 128.986C216.358 130.796 218.997 130.582 219.009 130.928C219.039 131.084 218.411 131.394 217.299 131.397C216.208 131.409 214.624 131.02 213.357 129.917C212.094 128.81 211.573 127.362 211.514 126.346C211.444 125.311 211.735 124.705 211.904 124.724Z" fill="#1E2944"/>
<path d="M211.588 97.3266C211.35 97.9403 209.085 97.5924 206.408 97.8496C203.725 98.0533 201.555 98.7838 201.215 98.2198C201.062 97.9502 201.452 97.3775 202.337 96.7998C203.213 96.2221 204.603 95.6867 206.21 95.5463C207.816 95.4109 209.277 95.6991 210.241 96.119C211.211 96.5377 211.693 97.0359 211.588 97.3266Z" fill="#E0E0E0"/>
<path d="M232.482 99.7391C232.069 100.247 230.515 99.672 228.631 99.6012C226.75 99.4645 225.141 99.8658 224.788 99.3154C224.634 99.0496 224.897 98.5377 225.606 98.0644C226.304 97.5936 227.464 97.2234 228.758 97.2929C230.051 97.365 231.163 97.8607 231.806 98.4061C232.458 98.9539 232.664 99.4919 232.482 99.7391Z" fill="#E0E0E0"/>
<path d="M186.509 113.438C186.259 113.323 176.41 110.184 176.489 120.317C176.569 130.451 186.721 128.28 186.736 127.99C186.751 127.699 186.509 113.438 186.509 113.438Z" fill="#F4C3AE"/>
<path d="M183.612 124.175C183.567 124.142 183.437 124.3 183.139 124.438C182.849 124.573 182.35 124.67 181.821 124.477C180.747 124.091 179.833 122.399 179.77 120.573C179.736 119.651 179.922 118.772 180.244 118.041C180.547 117.298 181.023 116.777 181.56 116.676C182.096 116.548 182.479 116.867 182.605 117.152C182.744 117.434 182.68 117.638 182.734 117.654C182.762 117.679 182.95 117.482 182.866 117.065C182.822 116.864 182.702 116.625 182.462 116.433C182.217 116.238 181.86 116.139 181.485 116.183C180.704 116.242 180.006 116.967 179.653 117.768C179.258 118.573 179.027 119.562 179.063 120.598C179.145 122.639 180.204 124.541 181.672 124.954C182.386 125.134 182.979 124.914 183.284 124.673C183.596 124.419 183.648 124.193 183.612 124.175Z" fill="#CC937F"/>
<path d="M230.011 82.7007C231.636 81.769 226.3 76.3339 222.242 74.5722C216.107 71.91 206.783 70.3633 201.196 72.0491C194.47 74.0803 188.911 77.5377 185.62 83.748C182.331 89.9571 181.175 97.1489 181.489 104.171C181.584 106.312 177.52 107.541 178.694 109.334C180.13 111.526 179.791 110.496 182.231 113.529C182.916 114.379 183.985 115.35 184.701 116.173C186.616 118.368 191.397 118.809 192.435 116.886C194.59 112.89 195.706 109.54 195.826 105.002C195.908 101.898 195.968 97.1936 195.155 94.1959C194.878 93.1785 194.712 92.2032 194.74 90.7771C194.772 89.0167 195.292 86.8662 196.335 85.4475C196.522 85.1966 196.84 84.8736 197.243 84.5133C199.644 82.379 203.09 81.8237 206.137 82.8362C211.914 84.7555 216.578 87.9148 223.177 85.0785C224.637 84.4512 225.345 83.2312 226.012 82.5231C227.005 81.4684 228.996 81.5578 230.01 82.5927L230.011 82.7007Z" fill="#E0E0E0"/>
<path d="M196.352 84.9597C199.604 83.1298 203.614 82.7012 207.179 83.8031C210.203 84.7386 212.81 86.6791 215.719 87.9239C222.192 90.6943 230.134 89.6607 235.682 85.3275C237.219 84.1274 238.658 82.5211 238.773 80.5743C238.868 78.9556 237.994 77.394 236.778 76.3219C235.563 75.251 234.035 74.6025 232.504 74.072C225.471 71.6346 217.816 71.3402 210.445 72.3862C204.506 73.2298 198.435 75.0709 194.143 79.2649C193.563 79.8302 193.011 80.4538 192.724 81.2104C192.437 81.9682 192.464 82.8888 192.973 83.5186C193.482 84.1473 194.533 84.3324 195.12 83.7746" fill="#E0E0E0"/>
<path d="M235.923 108.316C235.943 108.497 235.373 108.702 234.69 108.936C234.005 109.163 233.427 109.344 233.332 109.188C233.239 109.04 233.724 108.577 234.483 108.322C235.242 108.065 235.907 108.141 235.923 108.316Z" fill="#CC937F"/>
<path d="M236.788 109.92C236.762 110.099 236.037 110.139 235.16 110.141C234.284 110.139 233.558 110.1 233.532 109.92C233.506 109.746 234.231 109.493 235.16 109.494C236.089 109.493 236.814 109.746 236.788 109.92Z" fill="#CC937F"/>
<path d="M201.511 108.992C201.491 109.173 200.498 109.209 199.286 109.209C198.073 109.207 197.079 109.168 197.061 108.988C197.041 108.812 198.034 108.56 199.286 108.563C200.538 108.562 201.531 108.817 201.511 108.992Z" fill="#CC937F"/>
<path d="M201.379 111.045C201.343 111.224 200.488 111.199 199.452 111.203C198.418 111.202 197.562 111.232 197.525 111.053C197.488 110.883 198.343 110.557 199.451 110.557C200.56 110.553 201.417 110.875 201.379 111.045Z" fill="#CC937F"/>
<path d="M210.732 114.356C210.783 114.417 210.452 114.822 209.721 115.225C209.002 115.628 207.849 115.986 206.559 115.861C205.27 115.738 204.203 115.171 203.573 114.639C202.933 114.102 202.684 113.643 202.745 113.593C202.863 113.444 204.267 114.998 206.621 115.218C208.971 115.446 210.645 114.187 210.732 114.356Z" fill="#CC937F"/>
<path d="M211.772 113.864C211.841 114.019 210.766 114.584 209.305 114.582C207.845 114.589 206.768 114.028 206.838 113.872C206.9 113.696 207.975 113.944 209.304 113.935C210.633 113.941 211.709 113.687 211.772 113.864Z" fill="#CC937F"/>
<path d="M233.762 112.45C233.842 112.596 232.296 113.485 230.146 113.679C227.996 113.889 226.311 113.304 226.364 113.146C226.405 112.96 228.062 113.237 230.086 113.035C232.11 112.857 233.686 112.275 233.762 112.45Z" fill="#CC937F"/>
<path d="M232.658 113.23C232.791 113.334 231.547 114.63 229.458 114.99C227.373 115.372 225.76 114.581 225.848 114.437C225.905 114.253 227.457 114.706 229.346 114.353C231.239 114.035 232.542 113.076 232.658 113.23Z" fill="#CC937F"/>
<path d="M227.929 95.1767C227.945 95.2562 226.977 95.5407 225.369 95.7942C223.763 96.0488 221.511 96.2364 219.024 96.137C216.537 96.0339 214.307 95.6662 212.726 95.2811C211.144 94.8997 210.204 94.5369 210.225 94.4587C210.275 94.2624 214.148 95.3097 219.051 95.491C223.949 95.7072 227.897 94.9767 227.929 95.1767Z" fill="#CC937F"/>
<path d="M229.469 93.4024C229.494 93.5677 225.829 94.1826 221.262 94.1603C216.691 94.1528 213.033 93.513 213.059 93.3478C213.081 93.159 216.74 93.5056 221.263 93.513C225.784 93.5354 229.446 93.2136 229.469 93.4024Z" fill="#CC937F"/>
<path d="M217.92 100.748C217.743 100.711 217.687 100.271 217.667 99.7583C217.652 99.2465 217.68 98.803 217.855 98.7545C218.024 98.7049 218.294 99.1384 218.313 99.7372C218.334 100.336 218.092 100.787 217.92 100.748Z" fill="#CC937F"/>
<path d="M221.043 101.146C220.985 101.315 220.263 101.094 219.957 100.309C219.646 99.5239 220.024 98.8704 220.183 98.9549C220.354 99.0157 220.333 99.5288 220.559 100.072C220.762 100.623 221.128 100.984 221.043 101.146Z" fill="#CC937F"/>
<path d="M211.568 124.071C211.562 124.255 210.852 124.369 210.215 124.903C209.558 125.416 209.297 126.086 209.116 126.054C208.936 126.057 208.953 125.085 209.809 124.4C210.657 123.708 211.611 123.896 211.568 124.071Z" fill="#CC937F"/>
<path d="M208.911 123.884C208.871 124.061 208.491 124.156 208.203 124.507C207.891 124.839 207.844 125.226 207.674 125.289C207.593 125.311 207.468 125.2 207.428 124.954C207.387 124.713 207.472 124.358 207.717 124.08C207.962 123.8 208.305 123.672 208.548 123.682C208.796 123.691 208.923 123.802 208.911 123.884Z" fill="#CC937F"/>
<path d="M199.297 163.54C199.286 163.57 199 163.523 198.606 163.2C198.207 162.885 197.799 162.22 197.633 161.339C197.44 160.463 197.543 159.365 197.759 158.265C197.942 157.166 198.183 155.925 197.745 154.81C197.531 154.26 197.122 153.748 196.883 153.105C196.61 152.442 196.757 151.707 196.89 151.185C197.026 150.635 197.093 150.175 196.941 149.757C196.798 149.333 196.531 148.952 196.308 148.58C195.804 147.846 195.706 147.001 195.908 146.515C196.114 146.002 196.473 145.943 196.467 145.974C196.504 146.021 196.238 146.158 196.15 146.587C196.061 147.017 196.177 147.676 196.692 148.33C196.929 148.676 197.238 149.051 197.447 149.576C197.674 150.112 197.594 150.772 197.473 151.312C197.353 151.877 197.263 152.38 197.476 152.882C197.668 153.399 198.075 153.902 198.344 154.571C198.868 155.941 198.55 157.284 198.344 158.375C198.096 159.484 197.966 160.443 198.084 161.265C198.183 162.078 198.477 162.687 198.783 163.021C199.083 163.362 199.323 163.49 199.297 163.54Z" fill="#CC937F"/>
<path d="M205.728 164.771C205.727 164.801 205.41 164.818 204.967 164.509C204.519 164.21 204.067 163.552 203.756 162.692C203.2 160.974 202.395 158.624 202.097 155.848C202.029 155.156 202.005 154.474 202.031 153.817C202.052 153.153 202.148 152.546 202.085 152.012C202.036 150.894 200.958 150.508 200.254 149.863C199.904 149.544 199.64 149.135 199.592 148.722C199.545 148.285 199.748 147.958 199.946 147.768C200.401 147.36 200.786 147.604 200.737 147.624C200.735 147.678 200.416 147.578 200.13 147.94C199.998 148.108 199.885 148.386 199.949 148.662C200.013 148.96 200.232 149.257 200.556 149.519C200.874 149.785 201.309 149.997 201.757 150.341C202.219 150.663 202.615 151.29 202.676 151.938C202.765 152.582 202.672 153.218 202.665 153.838C202.648 154.467 202.675 155.118 202.74 155.785C203.022 158.447 203.756 160.836 204.188 162.545C204.434 163.383 204.778 163.994 205.126 164.314C205.467 164.644 205.747 164.716 205.728 164.771Z" fill="#CC937F"/>
<path d="M208.577 66.433C208.568 66.4119 208.764 66.3087 209.147 66.1311C209.525 65.9435 210.103 65.7124 210.853 65.4279C212.359 64.8813 214.612 64.2353 217.475 63.921C220.329 63.6042 223.813 63.6551 227.529 64.5471C229.382 64.9832 231.309 65.623 233.137 66.6591C234.94 67.6989 236.684 69.1884 237.689 71.2308C238.732 73.2421 238.983 75.5168 238.741 77.6014C238.481 79.691 237.75 81.6439 236.672 83.249C235.62 84.8827 234.203 86.12 232.763 87.0294C231.317 87.9499 229.821 88.5376 228.423 88.9053C225.614 89.6482 223.236 89.5588 221.648 89.3861C220.849 89.2929 220.236 89.1811 219.826 89.0767C219.416 88.9773 219.204 88.9152 219.208 88.8929C219.22 88.8332 220.087 89.0233 221.67 89.1339C223.245 89.2295 225.582 89.2432 228.301 88.4643C229.655 88.0791 231.095 87.4841 232.474 86.5772C233.852 85.679 235.187 84.4851 236.174 82.9223C237.187 81.3843 237.873 79.5146 238.111 77.5281C238.334 75.5454 238.088 73.4011 237.113 71.5252C236.182 69.6257 234.547 68.2145 232.82 67.2094C231.073 66.2069 229.201 65.5696 227.388 65.1273C223.756 64.2216 220.336 64.1223 217.52 64.3757C214.694 64.6279 212.451 65.1981 210.934 65.6665C209.416 66.1448 208.6 66.4876 208.577 66.433Z" fill="white"/>
<path d="M243.097 72.9884C243.161 72.9723 243.424 73.9301 243.179 75.478C242.953 77.0185 242.092 79.0733 240.555 80.8834C239.017 82.6909 237.279 83.9432 236.021 84.7942C234.751 85.6402 233.927 86.0949 233.878 86.0253C233.824 85.9495 234.559 85.3582 235.752 84.4252C236.934 83.486 238.588 82.2002 240.06 80.4659C241.53 78.7342 242.402 76.8309 242.732 75.3886C243.078 73.9425 242.986 72.9946 243.097 72.9884Z" fill="white"/>
<path d="M205.492 74.7749C205.555 74.9674 201.541 75.7426 197.53 78.5639C195.569 79.9789 193.822 81.4523 193.247 82.8897C192.638 84.3444 193.112 85.3495 193.008 85.3644C192.975 85.3818 192.806 85.1718 192.689 84.7109C192.574 84.2562 192.544 83.5394 192.818 82.7282C193.375 81.0548 195.155 79.4845 197.16 78.0335C199.217 76.5986 201.33 75.7078 202.896 75.2482C204.464 74.7786 205.478 74.7003 205.492 74.7749Z" fill="white"/>
<path d="M195.702 72.7246C195.755 72.8028 195.165 73.2699 194.24 74.0315C193.326 74.7943 192.056 75.8738 191.11 77.3833C190.174 78.8889 189.912 80.5487 190.048 81.6904C190.17 82.8482 190.587 83.493 190.489 83.5476C190.444 83.5948 189.857 83.0122 189.596 81.7599C189.326 80.5313 189.537 78.6864 190.561 77.0429C191.585 75.4129 192.968 74.347 193.966 73.665C194.979 72.9842 195.654 72.655 195.702 72.7246Z" fill="white"/>
<path d="M175.507 90.9985C175.441 90.9674 175.752 90.1164 176.646 88.9722C177.526 87.8355 179.067 86.4454 181.137 85.5993C183.207 84.7508 185.28 84.6602 186.705 84.854C188.143 85.0415 188.962 85.4304 188.937 85.4987C188.908 85.5993 188.057 85.3745 186.666 85.3086C185.284 85.2378 183.334 85.3981 181.382 86.1969C179.431 86.997 177.929 88.2505 176.994 89.2704C176.047 90.2928 175.598 91.0506 175.507 90.9985Z" fill="white"/>
<path d="M182.899 96.2534C182.831 96.2783 182.503 95.6298 182.436 94.4744C182.363 93.3377 182.642 91.6705 183.684 90.2071C184.731 88.7461 186.218 87.9398 187.315 87.6417C188.429 87.3298 189.149 87.4292 189.148 87.5025C189.157 87.6069 188.465 87.674 187.463 88.0752C186.468 88.4628 185.157 89.2617 184.211 90.5835C183.268 91.9053 182.938 93.406 182.895 94.4732C182.841 95.5528 183 96.2273 182.899 96.2534Z" fill="white"/>
<path d="M247.09 95.6668C247.101 95.7364 246.251 95.9438 244.874 95.7351C243.515 95.5388 241.621 94.8146 240.123 93.2604C238.626 91.7026 237.974 89.7807 237.83 88.4154C237.674 87.0302 237.913 86.1892 237.983 86.2016C238.09 86.2103 238.019 87.0501 238.282 88.3421C238.532 89.6229 239.209 91.3746 240.588 92.812C241.97 94.2444 243.694 94.9873 244.964 95.2867C246.245 95.5972 247.087 95.56 247.09 95.6668Z" fill="white"/>
<path d="M246.923 100.202C246.969 100.356 244.348 100.865 241.26 99.9701C238.164 99.1017 236.206 97.2867 236.325 97.1798C236.439 97.0171 238.485 98.524 241.438 99.3477C244.379 100.205 246.913 100.002 246.923 100.202Z" fill="white"/>
<path d="M230.656 153.094C232.23 153.094 248.985 150.856 259.23 157.606C269.476 164.355 296.97 216.527 296.97 216.527C296.97 216.527 305.357 244.32 293.563 249.826C281.769 255.332 250.581 272.113 250.581 272.113L242.981 244.582L264.475 234.619V208.137L230.656 153.094Z" fill="#455A64"/>
<path d="M264.476 210.432L276.045 211.066C282.381 211.414 288.238 214.547 292.045 219.624L299.55 229.636C299.55 229.636 303.527 234.809 302.372 237.049C301.41 238.912 299.518 238.762 297.696 237.122C295.874 235.482 290.046 226.919 290.046 226.919C290.046 226.919 300.783 240.662 298.327 243.197C295.76 245.844 293.142 242.407 293.142 242.407C293.142 242.407 294.781 247.691 291.504 247.144C288.225 246.597 284.29 241.678 284.29 241.678C284.29 241.678 284.765 244.775 281.851 244.411C278.937 244.047 270.377 230.928 269.648 230.928C268.92 230.928 265.095 230.563 265.095 230.563L264.476 210.432Z" fill="#CE947A"/>
<path d="M285.591 222.598C285.732 222.49 287.707 224.626 290 227.37C292.294 230.114 294.047 232.436 293.914 232.557C293.783 232.677 291.808 230.542 289.504 227.785C287.201 225.029 285.449 222.706 285.591 222.598Z" fill="#A56349"/>
<path d="M282.182 228.238C282.259 228.186 282.913 229.027 283.95 230.396C284.986 231.767 286.41 233.66 288.022 235.722C289.636 237.784 291.13 239.624 292.209 240.96C293.29 242.295 293.947 243.135 293.878 243.197C293.814 243.254 293.036 242.524 291.864 241.259C290.693 239.996 289.135 238.193 287.513 236.121C285.894 234.049 284.52 232.102 283.576 230.661C282.631 229.219 282.109 228.287 282.182 228.238Z" fill="#A56349"/>
<path d="M278.262 234.087C278.375 233.96 280.154 235.434 281.844 237.707C283.544 239.973 284.452 242.096 284.299 242.169C284.134 242.257 282.989 240.309 281.326 238.095C279.674 235.872 278.132 234.223 278.262 234.087Z" fill="#A56349"/>
<path d="M257.069 180.322C256.955 180.307 257.138 178.929 257.063 176.713C256.996 174.5 256.56 171.442 255.379 168.276C254.183 165.114 252.496 162.527 251.09 160.817C249.687 159.1 248.643 158.186 248.718 158.099C248.748 158.066 249.03 158.267 249.52 158.664C250.017 159.052 250.679 159.686 251.438 160.52C252.96 162.184 254.758 164.805 255.984 168.049C257.197 171.296 257.571 174.453 257.52 176.708C257.5 177.837 257.418 178.748 257.3 179.368C257.193 179.99 257.114 180.328 257.069 180.322Z" fill="#1E2944"/>
<path d="M184.409 171.26C184.409 171.26 199.545 180.017 211.033 177.463C222.522 174.908 230.657 166.882 230.657 166.882L250.97 213.403L238.935 306.628L202.645 311.371L190.609 222.971L184.409 171.26Z" fill="#FAFAFA"/>
<path d="M183.278 154.83C182.764 155.002 175.396 157.606 175.396 157.606L160.821 252.735C160.821 252.735 149.523 292.354 150.551 309.473C151.576 326.595 160.768 379.618 160.768 379.618L227.274 372.608L224.517 268.505C224.517 268.505 229.309 238.545 215.106 220.399C200.904 202.252 183.278 154.83 183.278 154.83Z" fill="#455A64"/>
<path d="M221.422 152.738C222.347 154.045 236.889 209.331 235.322 220.97C233.756 232.61 225.293 257.008 225.293 257.008L225.296 372.277L283.979 366.906C283.979 366.906 288.786 324.826 283.979 304.682C279.173 284.536 272.169 260.661 272.169 260.661L267.54 190.305L238.007 152.738H221.422Z" fill="#455A64"/>
<path d="M286.833 341.159C286.826 341.169 286.712 341.108 286.496 340.98C286.253 340.832 285.938 340.642 285.547 340.406C284.712 339.902 283.488 339.143 281.842 338.302C280.203 337.473 278.107 336.53 275.525 336.167C274.237 335.995 272.835 336.025 271.402 336.339C269.97 336.668 268.536 337.312 267.129 338.155C265.717 338.996 264.329 340.031 262.874 341.107C261.417 342.181 259.902 343.3 258.334 344.455C255.187 346.763 251.861 349.253 248.289 351.823C246.486 353.06 244.424 354.27 242.024 354.492C239.624 354.711 237.277 353.893 235.095 352.944C230.746 350.965 226.231 349.001 221.525 347.156C219.172 346.243 216.841 345.322 214.519 344.557C212.198 343.813 209.826 343.277 207.491 343.385C205.161 343.473 202.95 344.303 201.05 345.511C199.135 346.713 197.483 348.23 195.922 349.755C192.802 352.788 189.965 355.982 186.436 357.863C186.018 358.134 185.542 358.282 185.102 358.492C184.664 358.707 184.204 358.857 183.737 358.976C182.825 359.275 181.893 359.45 180.973 359.509C179.135 359.643 177.377 359.457 175.737 359.181C169.14 358.046 164.212 355.705 160.84 354.205C159.156 353.424 157.865 352.788 156.989 352.354C156.581 352.145 156.255 351.978 156.001 351.848C155.779 351.732 155.668 351.667 155.673 351.657C155.678 351.645 155.798 351.691 156.029 351.79C156.29 351.904 156.626 352.052 157.045 352.236C157.978 352.652 159.283 353.234 160.943 353.974C164.339 355.403 169.282 357.667 175.809 358.729C177.433 358.99 179.159 359.154 180.935 359.011C181.823 358.947 182.713 358.774 183.588 358.479C184.035 358.364 184.476 358.216 184.898 358.006C185.321 357.8 185.778 357.658 186.181 357.391C189.584 355.556 192.381 352.396 195.506 349.328C197.07 347.789 198.744 346.238 200.721 344.988C202.679 343.733 205.01 342.849 207.463 342.752C209.913 342.635 212.358 343.191 214.716 343.944C217.075 344.719 219.399 345.636 221.762 346.554C226.475 348.402 231.018 350.383 235.348 352.363C237.502 353.306 239.748 354.077 241.968 353.877C244.19 353.682 246.172 352.546 247.951 351.331C251.495 348.758 254.863 346.313 258.017 344.024C259.593 342.877 261.115 341.769 262.579 340.704C264.041 339.64 265.45 338.605 266.896 337.761C268.337 336.914 269.824 336.263 271.312 335.938C272.802 335.626 274.255 335.615 275.575 335.81C278.22 336.217 280.324 337.21 281.959 338.079C283.599 338.959 284.803 339.755 285.617 340.296C285.996 340.555 286.297 340.763 286.533 340.925C286.737 341.071 286.839 341.149 286.833 341.159Z" fill="#FAFAFA"/>
<path d="M207.768 252.71C208.087 252.604 218.211 247.06 220.769 246.74C223.326 246.421 243.221 245.452 243.221 245.452L248.538 264.711C248.538 264.711 231.958 272.754 229.401 273.394C226.843 274.034 215.974 277.978 214.162 277.978C212.35 277.978 207.235 276.272 207.235 275.1C207.235 273.927 207.98 273.501 207.98 273.501C207.98 273.501 213.309 273.606 214.908 273.073C216.506 272.54 218.425 271.581 218.425 271.581C218.425 271.581 200.202 274.353 198.923 273.927C197.644 273.501 196.685 270.822 196.685 270.822C196.685 270.822 194.553 269.343 194.34 267.956C194.127 266.57 194.873 265.931 196.045 265.397C197.218 264.864 205.103 261.346 207.449 260.707C209.792 260.066 215.974 259 215.974 259C215.974 259 197.218 261.027 196.045 260.494C194.873 259.961 193.594 257.934 195.513 256.762C197.431 255.589 200.947 253.776 203.079 253.457C205.21 253.137 207.768 252.71 207.768 252.71Z" fill="#F4C3AE"/>
<path d="M221.105 264.187C221.133 264.266 219.8 264.84 217.589 265.623C215.379 266.405 212.283 267.376 208.814 268.252C205.342 269.126 202.157 269.739 199.839 270.096C197.522 270.455 196.077 270.582 196.063 270.499C196.049 270.406 197.469 270.12 199.757 269.647C202.046 269.175 205.2 268.494 208.656 267.624C212.109 266.752 215.209 265.856 217.448 265.188C219.687 264.52 221.074 264.098 221.105 264.187Z" fill="#CC937F"/>
<path d="M219.354 249.834C219.393 250.009 216.86 250.725 213.697 251.434C210.533 252.142 207.936 252.576 207.896 252.402C207.858 252.227 210.391 251.511 213.555 250.802C216.718 250.094 219.315 249.66 219.354 249.834Z" fill="#CC937F"/>
<path d="M243.619 253.149C243.611 253.205 243.334 253.17 242.862 253.252C242.387 253.332 241.742 253.589 240.961 254.006C240.182 254.383 239.213 255.026 237.885 254.988C236.631 254.914 235.38 254.219 234.408 255.063C233.902 255.43 233.447 255.972 232.779 256.288C232.104 256.6 231.39 256.577 230.787 256.474C229.564 256.236 228.625 255.763 227.778 255.712C226.947 255.625 226.289 255.934 225.947 256.235C225.597 256.546 225.523 256.826 225.469 256.808C225.438 256.809 225.422 256.483 225.766 256.06C226.101 255.652 226.837 255.219 227.804 255.255C228.759 255.259 229.786 255.713 230.88 255.885C231.427 255.963 232.011 255.957 232.508 255.714C233.012 255.478 233.44 254.98 234.025 254.542C234.316 254.323 234.671 254.137 235.05 254.057C235.427 253.983 235.797 254.003 236.134 254.052C236.804 254.158 237.384 254.354 237.923 254.393C238.992 254.467 239.951 253.934 240.764 253.593C241.579 253.224 242.314 253.006 242.837 253.001C243.36 252.994 243.628 253.119 243.619 253.149Z" fill="#CC937F"/>
<path d="M243.812 257.095C243.865 257.131 243.229 257.965 241.698 258.518C240.943 258.782 239.965 258.951 238.895 258.8C238.375 258.731 237.855 258.611 237.384 258.673C236.907 258.719 236.589 259.026 236.239 259.516C235.921 259.997 235.359 260.53 234.74 260.666C234.134 260.835 233.547 260.808 233.017 260.731C231.968 260.553 231.111 260.279 230.384 260.33C229.668 260.367 229.128 260.682 228.854 260.968C228.574 261.26 228.513 261.502 228.462 261.489C228.428 261.487 228.397 261.209 228.658 260.81C228.915 260.421 229.503 259.983 230.342 259.874C231.175 259.757 232.126 260.013 233.096 260.141C234.077 260.259 235.134 260.136 235.723 259.126C235.902 258.89 236.096 258.631 236.367 258.418C236.64 258.201 236.987 258.077 237.306 258.044C237.952 257.978 238.496 258.134 238.985 258.21C239.947 258.378 240.844 258.272 241.564 258.081C243.016 257.681 243.745 257.004 243.812 257.095Z" fill="#CC937F"/>
<path d="M188.152 265.376C188.152 265.421 187.664 265.44 186.779 265.436C186.335 265.442 185.794 265.425 185.168 265.36C184.541 265.306 183.825 265.26 183.044 265.122C181.47 264.92 179.627 264.487 177.611 263.917C175.606 263.303 173.442 262.503 171.238 261.513C166.835 259.509 163.11 257.198 160.493 255.439C159.181 254.558 158.142 253.817 157.44 253.282C156.736 252.749 156.359 252.438 156.385 252.402C156.411 252.364 156.836 252.607 157.582 253.075C158.448 253.617 159.501 254.278 160.74 255.055C163.412 256.71 167.147 258.94 171.504 260.924C173.685 261.903 175.816 262.709 177.786 263.346C179.766 263.94 181.573 264.414 183.118 264.671C186.2 265.229 188.156 265.253 188.152 265.376Z" fill="#1E2944"/>
<path d="M200.963 281.875C200.953 281.918 200.215 281.767 198.885 281.453C198.217 281.308 197.409 281.097 196.486 280.798C195.559 280.512 194.496 280.205 193.358 279.758C191.047 278.958 188.39 277.758 185.499 276.315C182.635 274.817 179.569 273.014 176.482 270.924C170.323 266.707 165.253 262.222 161.752 258.83C160 257.133 158.622 255.719 157.703 254.711C156.779 253.708 156.285 253.139 156.316 253.107C156.349 253.078 156.906 253.587 157.883 254.535C158.855 255.487 160.28 256.847 162.067 258.497C165.637 261.794 170.728 266.2 176.846 270.388C179.913 272.465 182.947 274.27 185.775 275.787C188.628 277.247 191.246 278.481 193.52 279.33C194.64 279.802 195.685 280.137 196.596 280.452C197.503 280.784 198.297 281.029 198.952 281.21C200.255 281.596 200.973 281.831 200.963 281.875Z" fill="#1E2944"/>
<path d="M270.27 231.804C270.307 231.886 268.823 232.631 266.39 233.759C263.956 234.886 260.573 236.398 256.81 238.004C253.046 239.611 249.612 241.007 247.103 241.959C245.847 242.432 244.828 242.805 244.112 243.037C243.398 243.272 242.997 243.381 242.981 243.34C242.949 243.253 244.471 242.595 246.931 241.535C249.559 240.408 252.881 238.984 256.556 237.409C260.241 235.855 263.571 234.45 266.206 233.339C268.686 232.319 270.234 231.723 270.27 231.804Z" fill="#1E2944"/>
<path d="M245.338 179.684C245.355 179.671 245.507 179.821 245.779 180.118C246.094 180.476 246.478 180.912 246.942 181.437C247.968 182.571 249.468 184.193 251.41 186.114C253.335 188.052 255.704 190.29 258.219 192.904C260.722 195.52 263.373 198.554 265.528 202.184C267.707 205.805 268.897 209.732 269.432 213.335C269.905 216.946 270.05 220.205 270.177 222.942C270.289 225.679 270.329 227.894 270.336 229.425C270.33 230.129 270.326 230.71 270.322 231.188C270.31 231.592 270.293 231.804 270.27 231.804C270.248 231.804 270.223 231.593 270.192 231.191C270.163 230.715 270.127 230.134 270.084 229.432C269.993 227.805 269.87 225.62 269.721 222.965C269.536 220.241 269.343 216.982 268.842 213.421C268.282 209.886 267.107 206.065 264.97 202.512C262.857 198.95 260.253 195.939 257.787 193.314C255.309 190.692 252.972 188.419 251.083 186.435C249.177 184.467 247.721 182.789 246.752 181.601C246.322 181.042 245.969 180.58 245.677 180.2C245.437 179.875 245.32 179.698 245.338 179.684Z" fill="#1E2944"/>
<path d="M292.378 250.386C292.4 250.426 291.738 250.817 290.527 251.49C289.213 252.202 287.472 253.146 285.366 254.289C280.994 256.627 274.935 259.818 268.225 263.306C261.339 266.885 255.104 270.083 250.686 272.312L250.435 272.438L250.365 272.172C249.794 269.941 249.322 268.108 248.966 266.721C248.65 265.435 248.496 264.724 248.539 264.711C248.581 264.7 248.814 265.389 249.203 266.655C249.609 268.028 250.145 269.844 250.797 272.052L250.478 271.914C254.841 269.577 261.041 266.311 267.926 262.732C274.637 259.244 280.729 256.118 285.155 253.883C287.3 252.816 289.073 251.933 290.41 251.267C291.658 250.662 292.357 250.346 292.378 250.386Z" fill="#1E2944"/>
<path d="M226.944 274.284C226.966 274.287 226.954 274.632 226.912 275.287C226.858 276 226.786 276.952 226.696 278.145C226.452 280.623 226.288 284.222 226.06 288.663C225.666 297.553 225.553 309.852 225.76 323.432C225.96 337.016 226.399 349.309 226.751 358.205C226.929 362.603 227.074 366.186 227.177 368.742C227.221 369.938 227.254 370.891 227.28 371.605C227.297 372.262 227.297 372.606 227.274 372.608C227.253 372.609 227.208 372.267 227.15 371.614C227.094 370.901 227.02 369.948 226.926 368.754C226.751 366.269 226.527 362.674 226.294 358.227C225.825 349.333 225.315 337.035 225.115 323.442C224.906 309.852 225.092 297.538 225.603 288.641C225.89 284.194 226.124 280.595 226.445 278.122C226.585 276.932 226.698 275.984 226.782 275.272C226.867 274.622 226.922 274.282 226.944 274.284Z" fill="#1E2944"/>
<path d="M175.396 157.606C175.396 157.606 153.456 166.967 146.68 181.815C139.905 196.664 126.031 243.791 125.709 252.506C125.386 261.221 141.518 288.334 141.518 288.334L167.008 272.195L162.167 260.253L169.911 208.93L175.396 157.606Z" fill="#455A64"/>
<path d="M164.92 556.051H164.915C163.201 556.049 161.814 554.656 161.816 552.94C161.82 550.435 162.206 302.381 162.095 298.374C161.858 289.82 156.65 285.904 156.429 285.741C155.054 284.734 154.738 282.797 155.734 281.414C156.728 280.029 158.64 279.698 160.033 280.682C160.357 280.911 167.975 286.428 168.302 298.202C168.415 302.299 168.041 542.719 168.025 552.95C168.022 554.663 166.633 556.051 164.92 556.051Z" fill="#1E2944"/>
<path d="M147.303 316.814H147.299C145.585 316.811 144.196 315.419 144.199 313.703C144.212 304.487 144.224 290.478 144.201 289.658C144.077 287.947 145.365 286.51 147.075 286.386C148.785 286.276 150.275 287.598 150.4 289.309C150.41 289.454 150.441 289.891 150.408 313.713C150.405 315.426 149.016 316.814 147.303 316.814Z" fill="#1E2944"/>
<path d="M152.096 272.694C152.096 272.694 147.587 276.642 146.084 277.957C144.58 279.273 142.701 290.928 142.701 290.928C142.701 290.928 149.277 297.977 152.096 298.261C154.915 298.541 157.169 296.662 157.169 296.662C157.169 296.662 159.988 298.261 161.679 296.849C163.37 295.439 159.331 286.322 159.331 286.322C159.331 286.322 157.81 281.906 162.093 282.188L163.934 285.491L168.537 293.372C168.537 293.372 171.356 292.996 171.827 291.587C172.296 290.177 170.605 285.491 170.605 285.491C170.605 285.491 172.484 282.657 171.451 279.931C170.416 277.206 168.726 272.224 163.747 271.096C158.767 269.968 152.096 272.694 152.096 272.694Z" fill="#F4C3AE"/>
<path d="M156.889 295.524C156.807 295.585 156.042 294.591 154.651 293.14C153.262 291.679 151.213 289.837 148.64 288.118C148.008 287.654 147.388 287.116 146.993 286.413C146.592 285.711 146.501 284.894 146.609 284.191C146.825 282.761 147.599 281.704 148.229 280.917C148.877 280.126 149.419 279.526 149.762 279.081C150.111 278.642 150.286 278.383 150.328 278.405C150.436 278.452 149.827 279.604 148.592 281.194C148.016 281.999 147.356 283.015 147.199 284.266C147.125 284.884 147.213 285.534 147.543 286.1C147.871 286.672 148.415 287.152 149.023 287.596C151.59 289.309 153.681 291.282 154.99 292.833C156.315 294.386 156.951 295.481 156.889 295.524Z" fill="#CC937F"/>
<path d="M165.219 280.726C165.356 280.854 164.62 281.78 164.302 283.145C163.956 284.502 164.184 285.664 164.003 285.714C163.85 285.791 163.286 284.547 163.674 282.99C164.046 281.431 165.118 280.588 165.219 280.726Z" fill="#CC937F"/>
<path d="M131.648 248.009C131.648 247.965 132.275 247.951 133.413 247.963C133.981 247.978 134.68 247.966 135.488 248.022C136.312 248.125 137.225 248.239 138.219 248.363C139.229 248.506 140.307 248.828 141.48 249.088C142.065 249.232 142.64 249.478 143.247 249.679C143.846 249.91 144.492 250.073 145.091 250.393C147.591 251.448 150.118 253.084 152.512 255.079C154.91 257.083 156.906 259.298 158.612 261.375C160.329 263.448 161.775 265.386 163.007 266.994C164.234 268.608 165.237 269.903 165.95 270.784C166.661 271.663 167.04 272.165 167.008 272.196C166.974 272.226 166.532 271.78 165.757 270.946C164.985 270.114 163.921 268.857 162.648 267.276C161.368 265.701 159.886 263.795 158.155 261.758C156.435 259.716 154.451 257.542 152.095 255.574C149.742 253.615 147.284 252 144.849 250.937C144.267 250.616 143.635 250.449 143.052 250.213C142.46 250.007 141.899 249.755 141.329 249.602C140.181 249.326 139.128 248.983 138.138 248.813C137.159 248.657 136.262 248.512 135.452 248.381C134.656 248.293 133.964 248.268 133.401 248.216C132.274 248.125 131.648 248.054 131.648 248.009Z" fill="#1E2944"/>
<path d="M165.219 204.019C165.262 204.026 165.16 204.803 164.939 206.199C164.721 207.595 164.368 209.609 163.916 212.095C162.952 217.156 161.657 223.963 160.225 231.484C158.794 239.057 157.649 245.937 156.925 250.934C156.583 253.352 156.301 255.35 156.089 256.853C155.895 258.253 155.767 259.025 155.723 259.02C155.678 259.016 155.723 258.235 155.839 256.826C155.95 255.416 156.166 253.381 156.473 250.872C157.081 245.853 158.157 238.945 159.59 231.365C161.024 223.788 162.451 216.956 163.468 212.008C163.968 209.614 164.38 207.639 164.692 206.152C164.989 204.77 165.174 204.011 165.219 204.019Z" fill="#1E2944"/>
<path d="M171.267 558.313H159.619L161.791 549.042H168.678L171.267 558.313Z" fill="#455A64"/>
</svg>
