<svg width="62" height="83" viewBox="0 0 62 83" fill="none" xmlns="http://www.w3.org/2000/svg">
<path d="M9.87158 19.7432C15.3235 19.7432 19.7432 15.3235 19.7432 9.87158C19.7432 4.41965 15.3235 0 9.87158 0C4.41965 0 0 4.41965 0 9.87158C0 15.3235 4.41965 19.7432 9.87158 19.7432Z" fill="#79CED2"/>
<path d="M52.063 19.7432C57.5149 19.7432 61.9346 15.3235 61.9346 9.87158C61.9346 4.41965 57.5149 0 52.063 0C46.6111 0 42.1914 4.41965 42.1914 9.87158C42.1914 15.3235 46.6111 19.7432 52.063 19.7432Z" fill="#79CED2"/>
<path d="M61.9346 34.6308C61.9346 40.0827 54.5953 82.3399 52.063 82.3399C49.5306 82.3399 42.1914 40.0827 42.1914 34.6308C42.1914 29.1789 46.6111 24.7592 52.063 24.7592C57.5149 24.7592 61.9346 29.1789 61.9346 34.6308Z" fill="#61A6AD"/>
<path opacity="0.973138" d="M52.0629 24.7592C50.6999 24.7592 49.4012 25.0352 48.2202 25.5348C47.0392 26.0343 45.9755 26.757 45.0823 27.6502C44.1891 28.5434 42.6222 30.5754 42.1235 31.3398C41.877 31.7177 36.4147 38.5704 30.9673 45.3863C33.1565 48.1255 35.1246 50.5838 36.9745 52.8949C45.9403 49.2938 55.7285 44.8781 59.0428 41.6107C59.936 40.7175 60.6594 39.6539 61.159 38.4728C61.6585 37.2918 61.9345 35.9938 61.9345 34.6308C61.9345 33.2678 61.6585 31.9691 61.159 30.788C60.6594 29.607 59.936 28.5434 59.0428 27.6502C58.1496 26.757 57.086 26.0343 55.905 25.5348C54.7239 25.0352 53.4259 24.7592 52.0629 24.7592V24.7592Z" fill="#79CED2"/>
<path d="M19.7432 34.6308C19.7432 40.0827 12.4039 82.3399 9.87158 82.3399C7.33922 82.3399 0 40.0827 0 34.6308C0 29.1789 4.41966 24.7592 9.87158 24.7592C15.3235 24.7592 19.7432 29.1789 19.7432 34.6308Z" fill="#79CED2"/>
<path opacity="0.973138" d="M9.8718 24.7592C8.50881 24.7592 7.21077 25.0352 6.02974 25.5348C4.84874 26.0343 3.78508 26.757 2.89189 27.6502C1.99866 28.5434 1.2753 29.607 0.775785 30.788C0.276269 31.9691 0.000244141 33.2678 0.000244141 34.6308C0.000244141 35.9938 0.276269 37.2918 0.775785 38.4728C1.2753 39.6539 1.9987 40.7175 2.89189 41.6107C6.20615 44.878 15.9932 49.2938 24.9589 52.8949C27.0884 50.2353 27.9702 49.1365 30.9674 45.3863C25.5164 38.5659 20.0572 31.7179 19.8105 31.3398C19.3119 30.5754 17.7456 28.5434 16.8524 27.6502C15.9592 26.757 14.8956 26.0343 13.7145 25.5348C12.5336 25.0352 11.2348 24.7592 9.8718 24.7592V24.7592Z" fill="#61A6AD"/>
<path opacity="0.973138" d="M30.9673 45.3863C27.97 49.1365 27.0882 50.2353 24.9587 52.8949C27.0374 53.7298 29.0658 54.5176 30.9652 55.2404C32.8676 54.5165 34.8919 53.7313 36.9744 52.8949C35.1246 50.5838 33.1565 48.1255 30.9673 45.3863Z" fill="#1E2944"/>
</svg>
