<svg width="170" height="84" viewBox="0 0 170 84" fill="none" xmlns="http://www.w3.org/2000/svg">
<path d="M9.87158 20.6582C15.3235 20.6582 19.7432 16.2385 19.7432 10.7866C19.7432 5.33469 15.3235 0.915039 9.87158 0.915039C4.41965 0.915039 0 5.33469 0 10.7866C0 16.2385 4.41965 20.6582 9.87158 20.6582Z" fill="#79CED2"/>
<path d="M52.063 20.6582C57.5149 20.6582 61.9345 16.2385 61.9345 10.7866C61.9345 5.33469 57.5149 0.915039 52.063 0.915039C46.611 0.915039 42.1914 5.33469 42.1914 10.7866C42.1914 16.2385 46.611 20.6582 52.063 20.6582Z" fill="#79CED2"/>
<path d="M61.9346 35.5458C61.9346 40.9978 54.5954 83.2549 52.063 83.2549C49.5307 83.2549 42.1914 40.9978 42.1914 35.5458C42.1914 30.0939 46.6111 25.6743 52.063 25.6743C57.5149 25.6743 61.9346 30.0939 61.9346 35.5458Z" fill="#61A6AD"/>
<path opacity="0.973138" d="M52.063 25.6743C50.7 25.6743 49.4013 25.9503 48.2203 26.4498C47.0392 26.9493 45.9756 27.672 45.0824 28.5652C44.1892 29.4584 42.6222 31.4905 42.1236 32.2548C41.8771 32.6327 36.4148 39.4855 30.9674 46.3013C33.1566 49.0405 35.1247 51.4988 36.9745 53.8099C45.9404 50.2088 55.7285 45.7931 59.0429 42.5257C59.9361 41.6325 60.6595 40.5689 61.159 39.3879C61.6586 38.2069 61.9346 36.9088 61.9346 35.5458C61.9346 34.1829 61.6586 32.8841 61.159 31.7031C60.6595 30.5221 59.9361 29.4584 59.0429 28.5652C58.1497 27.672 57.0861 26.9493 55.9051 26.4498C54.724 25.9503 53.426 25.6743 52.063 25.6743V25.6743Z" fill="#79CED2"/>
<path d="M19.7432 35.5458C19.7432 40.9978 12.4039 83.2549 9.87158 83.2549C7.33922 83.2549 0 40.9978 0 35.5458C0 30.0939 4.41966 25.6743 9.87158 25.6743C15.3235 25.6743 19.7432 30.0939 19.7432 35.5458Z" fill="#79CED2"/>
<path opacity="0.973138" d="M9.87175 25.6743C8.50876 25.6743 7.21072 25.9503 6.02969 26.4498C4.8487 26.9493 3.78504 27.672 2.89184 28.5652C1.99861 29.4584 1.27526 30.5221 0.775739 31.7031C0.276223 32.8841 0.000198364 34.1829 0.000198364 35.5458C0.000198364 36.9088 0.276223 38.2069 0.775739 39.3879C1.27526 40.5689 1.99865 41.6325 2.89184 42.5257C6.20611 45.7931 15.9932 50.2088 24.9589 53.8099C27.0884 51.1503 27.9701 50.0515 30.9674 46.3013C25.5164 39.4809 20.0571 32.633 19.8105 32.2548C19.3118 31.4905 17.7455 29.4584 16.8523 28.5652C15.9592 27.672 14.8955 26.9493 13.7145 26.4498C12.5335 25.9503 11.2347 25.6743 9.87175 25.6743V25.6743Z" fill="#61A6AD"/>
<path opacity="0.973138" d="M30.9674 46.3014C27.9702 50.0516 27.0884 51.1503 24.9589 53.8099C27.0375 54.6448 29.0659 55.4326 30.9653 56.1554C32.8677 55.4315 34.892 54.6464 36.9745 53.8099C35.1247 51.4988 33.1566 49.0405 30.9674 46.3014Z" fill="#1E2944"/>
<path d="M80.7781 14.1416C80.7101 14.0057 80.6762 13.8655 80.6762 13.721C80.6847 13.568 80.7144 13.4278 80.7654 13.3004C80.8249 13.1729 80.9056 13.0582 81.0076 12.9562C81.1095 12.8542 81.2328 12.7735 81.3772 12.714C81.6492 12.6036 81.9211 12.6036 82.193 12.714C82.4649 12.8245 82.6604 13.0199 82.7793 13.3004L87.8525 25.1165L92.9129 13.3004C93.0319 13.0284 93.2273 12.8372 93.4992 12.7268C93.7712 12.6078 94.0474 12.6036 94.3278 12.714C94.6082 12.833 94.8037 13.0284 94.9141 13.3004C95.0331 13.5723 95.0331 13.8527 94.9141 14.1416L88.8595 28.2649C88.766 28.4858 88.6173 28.66 88.4134 28.7875C88.2094 28.9065 87.9927 28.9575 87.7633 28.9405C87.5678 28.9235 87.3851 28.8597 87.2152 28.7493C87.0537 28.6303 86.9262 28.4688 86.8328 28.2649L80.7781 14.1416ZM96.5421 24.0075C96.6271 24.4324 96.78 24.8233 97.001 25.1802C97.2304 25.5286 97.5023 25.8303 97.8168 26.0852C98.1397 26.3402 98.5008 26.5398 98.9002 26.6843C99.3081 26.8288 99.7373 26.901 100.188 26.901C100.723 26.901 101.216 26.8118 101.666 26.6333C102.125 26.4549 102.503 26.1999 102.801 25.8685C103.005 25.7241 103.196 25.6391 103.374 25.6136C103.561 25.5796 103.74 25.5924 103.91 25.6518C104.02 25.6943 104.118 25.7581 104.203 25.843C104.288 25.9195 104.364 26.0087 104.432 26.1107C104.568 26.3232 104.628 26.5653 104.611 26.8373C104.602 27.1092 104.466 27.3556 104.203 27.5766C103.999 27.7805 103.765 27.976 103.502 28.1629C103.238 28.3499 102.941 28.5113 102.609 28.6473C102.278 28.7833 101.913 28.8895 101.513 28.966C101.114 29.0509 100.672 29.0934 100.188 29.0934C99.3464 29.0934 98.5561 28.9362 97.8168 28.6218C97.0775 28.2989 96.4316 27.8655 95.8793 27.3216C95.3269 26.7693 94.8893 26.1235 94.5664 25.3842C94.252 24.6449 94.0948 23.8546 94.0948 23.0133C94.0948 22.172 94.252 21.3817 94.5664 20.6424C94.8893 19.9031 95.3269 19.2615 95.8793 18.7177C96.4316 18.1653 97.0775 17.7319 97.8168 17.4175C98.5561 17.0946 99.3464 16.9332 100.188 16.9332C101.02 16.9332 101.802 17.0904 102.533 17.4048C103.272 17.7192 103.918 18.1483 104.47 18.6922C105.023 19.236 105.46 19.8776 105.783 20.6169C106.115 21.3477 106.285 22.1295 106.293 22.9623C106.293 23.2682 106.191 23.5189 105.987 23.7143C105.792 23.9098 105.533 24.0075 105.21 24.0075H96.5421ZM104.024 22.172C103.948 21.7216 103.795 21.3137 103.565 20.9483C103.345 20.5744 103.064 20.2558 102.724 19.9923C102.393 19.7204 102.015 19.5122 101.59 19.3678C101.165 19.2148 100.71 19.1383 100.226 19.1383C99.7415 19.1383 99.2869 19.2148 98.862 19.3678C98.4456 19.5207 98.0717 19.7332 97.7403 20.0051C97.4089 20.2685 97.1327 20.5872 96.9118 20.9611C96.6993 21.3265 96.5548 21.7301 96.4784 22.172H104.024ZM110.22 17.0861H115.217C115.37 17.0861 115.514 17.1159 115.65 17.1753C115.786 17.2348 115.901 17.3156 115.994 17.4175C116.096 17.5195 116.177 17.6385 116.236 17.7744C116.296 17.9019 116.326 18.0421 116.326 18.1951C116.326 18.348 116.296 18.4925 116.236 18.6285C116.185 18.7559 116.109 18.8706 116.007 18.9726C115.905 19.0661 115.786 19.1426 115.65 19.202C115.514 19.2615 115.37 19.2913 115.217 19.2913H110.22V23.1153C110.22 23.6421 110.322 24.1392 110.526 24.6066C110.73 25.0655 111.006 25.4649 111.354 25.8048C111.711 26.1447 112.124 26.4124 112.591 26.6078C113.067 26.8033 113.577 26.901 114.12 26.901C114.605 26.901 115.051 26.833 115.459 26.6971C115.867 26.5526 116.253 26.3189 116.619 25.996C116.687 25.928 116.755 25.8728 116.823 25.8303C116.899 25.7793 116.98 25.7368 117.065 25.7028C117.235 25.6348 117.413 25.6136 117.6 25.6391C117.787 25.6646 117.961 25.7496 118.123 25.894C118.242 26.0045 118.327 26.1362 118.378 26.2892C118.429 26.4336 118.45 26.5866 118.442 26.748C118.433 26.901 118.395 27.054 118.327 27.2069C118.259 27.3599 118.165 27.4916 118.046 27.6021C117.528 28.0949 116.933 28.4688 116.262 28.7238C115.599 28.9702 114.885 29.0934 114.12 29.0934C113.279 29.0934 112.485 28.9405 111.737 28.6345C110.998 28.3201 110.352 27.8952 109.799 27.3599C109.256 26.816 108.822 26.1787 108.499 25.4479C108.185 24.7171 108.028 23.931 108.028 23.0898V14.3838C108.028 14.0694 108.134 13.8017 108.346 13.5808C108.567 13.3599 108.831 13.2494 109.137 13.2494C109.29 13.2494 109.43 13.2791 109.557 13.3386C109.693 13.3981 109.808 13.4788 109.901 13.5808C110.003 13.6828 110.08 13.8017 110.131 13.9377C110.19 14.0737 110.22 14.2224 110.22 14.3838V17.0861ZM121.861 24.0075C121.946 24.4324 122.099 24.8233 122.32 25.1802C122.549 25.5286 122.821 25.8303 123.136 26.0852C123.459 26.3402 123.82 26.5398 124.219 26.6843C124.627 26.8288 125.056 26.901 125.507 26.901C126.042 26.901 126.535 26.8118 126.985 26.6333C127.444 26.4549 127.822 26.1999 128.12 25.8685C128.324 25.7241 128.515 25.6391 128.693 25.6136C128.88 25.5796 129.059 25.5924 129.229 25.6518C129.339 25.6943 129.437 25.7581 129.522 25.843C129.607 25.9195 129.683 26.0087 129.751 26.1107C129.887 26.3232 129.947 26.5653 129.93 26.8373C129.921 27.1092 129.785 27.3556 129.522 27.5766C129.318 27.7805 129.084 27.976 128.821 28.1629C128.557 28.3499 128.26 28.5113 127.928 28.6473C127.597 28.7833 127.232 28.8895 126.832 28.966C126.433 29.0509 125.991 29.0934 125.507 29.0934C124.665 29.0934 123.875 28.9362 123.136 28.6218C122.396 28.2989 121.751 27.8655 121.198 27.3216C120.646 26.7693 120.208 26.1235 119.885 25.3842C119.571 24.6449 119.414 23.8546 119.414 23.0133C119.414 22.172 119.571 21.3817 119.885 20.6424C120.208 19.9031 120.646 19.2615 121.198 18.7177C121.751 18.1653 122.396 17.7319 123.136 17.4175C123.875 17.0946 124.665 16.9332 125.507 16.9332C126.339 16.9332 127.121 17.0904 127.852 17.4048C128.591 17.7192 129.237 18.1483 129.789 18.6922C130.342 19.236 130.779 19.8776 131.102 20.6169C131.434 21.3477 131.604 22.1295 131.612 22.9623C131.612 23.2682 131.51 23.5189 131.306 23.7143C131.111 23.9098 130.852 24.0075 130.529 24.0075H121.861ZM129.343 22.172C129.267 21.7216 129.114 21.3137 128.884 20.9483C128.663 20.5744 128.383 20.2558 128.043 19.9923C127.712 19.7204 127.334 19.5122 126.909 19.3678C126.484 19.2148 126.029 19.1383 125.545 19.1383C125.06 19.1383 124.606 19.2148 124.181 19.3678C123.765 19.5207 123.391 19.7332 123.059 20.0051C122.728 20.2685 122.452 20.5872 122.231 20.9611C122.018 21.3265 121.874 21.7301 121.797 22.172H129.343ZM139.742 19.2913H139.729C139.168 19.2913 138.637 19.4017 138.136 19.6227C137.634 19.8351 137.197 20.1283 136.823 20.5022C136.449 20.8761 136.151 21.318 135.931 21.8279C135.71 22.3292 135.599 22.8688 135.599 23.4467V27.8443C135.599 28.1587 135.497 28.4221 135.293 28.6345C135.089 28.8385 134.839 28.9405 134.541 28.9405C134.227 28.9405 133.959 28.8385 133.738 28.6345C133.517 28.4221 133.407 28.1587 133.407 27.8443V23.4467C133.407 22.5714 133.572 21.7514 133.904 20.9866C134.235 20.2133 134.686 19.5377 135.255 18.9599C135.833 18.382 136.504 17.9274 137.269 17.596C138.042 17.2561 138.862 17.0861 139.729 17.0861H139.742H139.793C140.158 17.0861 140.439 17.1923 140.634 17.4048C140.838 17.6087 140.94 17.8679 140.94 18.1823C140.94 18.4967 140.829 18.7602 140.609 18.9726C140.388 19.1851 140.116 19.2913 139.793 19.2913H139.742ZM141.446 23.0133C141.446 22.172 141.604 21.3817 141.918 20.6424C142.241 19.9031 142.679 19.2615 143.231 18.7177C143.783 18.1653 144.429 17.7319 145.168 17.4175C145.908 17.0946 146.694 16.9332 147.527 16.9332C148.359 16.9332 149.141 17.0904 149.872 17.4048C150.603 17.7192 151.24 18.1483 151.784 18.6922C152.336 19.236 152.774 19.8734 153.097 20.6042C153.42 21.335 153.585 22.1168 153.594 22.9496V23.0133V27.806C153.594 28.1204 153.483 28.3881 153.263 28.609C153.05 28.83 152.782 28.9405 152.459 28.9405C152.145 28.9405 151.886 28.83 151.682 28.609C151.486 28.3881 151.389 28.1204 151.389 27.806L151.376 27.5383C150.849 28.0057 150.259 28.3839 149.604 28.6728C148.958 28.9532 148.266 29.0934 147.527 29.0934C146.694 29.0934 145.908 28.9362 145.168 28.6218C144.429 28.2989 143.783 27.8612 143.231 27.3089C142.679 26.7565 142.241 26.115 141.918 25.3842C141.604 24.6449 141.446 23.8546 141.446 23.0133ZM143.639 23.0133C143.639 23.5401 143.741 24.0415 143.945 24.5174C144.149 24.9848 144.425 25.3969 144.773 25.7538C145.122 26.1022 145.534 26.3826 146.01 26.5951C146.486 26.799 146.991 26.901 147.527 26.901C148.07 26.901 148.576 26.799 149.043 26.5951C149.511 26.3826 149.919 26.1022 150.267 25.7538C150.615 25.3969 150.887 24.9848 151.083 24.5174C151.287 24.0415 151.389 23.5401 151.389 23.0133C151.389 22.4779 151.287 21.9766 151.083 21.5092C150.887 21.0333 150.615 20.6212 150.267 20.2728C149.919 19.9244 149.511 19.6482 149.043 19.4442C148.576 19.2403 148.07 19.1383 147.527 19.1383C146.991 19.1383 146.486 19.2403 146.01 19.4442C145.542 19.6482 145.13 19.9244 144.773 20.2728C144.425 20.6212 144.149 21.0333 143.945 21.5092C143.741 21.9766 143.639 22.4779 143.639 23.0133ZM167.404 22.8603V27.8697C167.404 28.1842 167.302 28.4433 167.098 28.6473C166.894 28.8512 166.639 28.9532 166.333 28.9532C166.027 28.9532 165.764 28.8512 165.543 28.6473C165.322 28.4433 165.211 28.1842 165.211 27.8697V22.8348V22.8221C165.211 22.3122 165.126 21.8363 164.957 21.3945C164.787 20.9441 164.549 20.5532 164.243 20.2218C163.945 19.8904 163.584 19.6269 163.159 19.4315C162.743 19.236 162.284 19.1383 161.783 19.1383C161.273 19.1383 160.805 19.2318 160.381 19.4187C159.956 19.6057 159.586 19.8649 159.272 20.1963C158.957 20.5192 158.711 20.9058 158.532 21.3562C158.362 21.7981 158.277 22.274 158.277 22.7838V27.8697C158.277 28.1842 158.175 28.4433 157.971 28.6473C157.767 28.8512 157.513 28.9532 157.207 28.9532C157.054 28.9532 156.909 28.9277 156.773 28.8767C156.637 28.8172 156.518 28.7408 156.416 28.6473C156.314 28.5538 156.234 28.4391 156.174 28.3031C156.115 28.1672 156.085 28.0227 156.085 27.8697V22.8221V22.7838V22.7711C156.085 21.9638 156.229 21.2075 156.518 20.5022C156.807 19.7884 157.207 19.1681 157.716 18.6412C158.226 18.1143 158.83 17.6979 159.526 17.392C160.223 17.0861 160.975 16.9332 161.783 16.9332C162.59 16.9332 163.338 17.0861 164.026 17.392C164.714 17.6979 165.309 18.1143 165.811 18.6412C166.312 19.1681 166.703 19.7884 166.983 20.5022C167.264 21.2075 167.404 21.9638 167.404 22.7711V22.7966V22.8348V22.8603Z" fill="#61A6AD"/>
<path d="M86.4936 39.1487V56.2818C86.4936 56.7501 86.3245 57.1469 85.9863 57.4721C85.661 57.7844 85.2708 57.9405 84.8154 57.9405C84.3471 57.9405 83.9438 57.7844 83.6056 57.4721C83.2804 57.1469 83.1177 56.7501 83.1177 56.2818V34.6215C83.1177 34.1532 83.2804 33.7629 83.6056 33.4507C83.9438 33.1254 84.3471 32.9628 84.8154 32.9628H84.874C85.3163 32.9888 85.7001 33.1515 86.0253 33.4507L94.9821 44.3003L103.939 33.4507C104.212 33.2035 104.524 33.0474 104.876 32.9823C104.902 32.9823 104.934 32.9823 104.973 32.9823C105.012 32.9693 105.045 32.9628 105.071 32.9628C105.188 32.9628 105.279 32.9693 105.344 32.9823C105.76 33.0344 106.111 33.2165 106.398 33.5287C106.684 33.8279 106.827 34.1922 106.827 34.6215V56.2818C106.827 56.7501 106.658 57.1469 106.32 57.4721C105.994 57.7844 105.598 57.9405 105.129 57.9405C104.674 57.9405 104.277 57.7844 103.939 57.4721C103.614 57.1469 103.451 56.7501 103.451 56.2818V39.1682L96.27 47.8518L96.1139 48.047C95.9188 48.2421 95.7366 48.3722 95.5675 48.4373C95.0342 48.6714 94.5333 48.5999 94.065 48.2226L93.8893 48.0665L86.4936 39.1487ZM114.135 50.3886C114.265 51.0391 114.499 51.6375 114.838 52.1839C115.189 52.7173 115.605 53.1791 116.087 53.5694C116.581 53.9597 117.134 54.2654 117.745 54.4865C118.37 54.7077 119.027 54.8183 119.716 54.8183C120.536 54.8183 121.29 54.6817 121.98 54.4085C122.682 54.1353 123.261 53.745 123.716 53.2376C124.029 53.0165 124.321 52.8864 124.595 52.8474C124.881 52.7953 125.154 52.8148 125.414 52.9059C125.583 52.971 125.733 53.0685 125.863 53.1986C125.993 53.3157 126.11 53.4523 126.214 53.6084C126.422 53.9336 126.513 54.3044 126.487 54.7207C126.474 55.137 126.266 55.5142 125.863 55.8525C125.551 56.1647 125.193 56.4639 124.79 56.7501C124.386 57.0363 123.931 57.2835 123.424 57.4916C122.916 57.6998 122.357 57.8624 121.746 57.9795C121.134 58.1096 120.458 58.1746 119.716 58.1746C118.428 58.1746 117.218 57.934 116.087 57.4526C114.955 56.9583 113.966 56.2948 113.12 55.4622C112.275 54.6166 111.605 53.6279 111.111 52.4961C110.629 51.3643 110.389 50.1545 110.389 48.8666C110.389 47.5786 110.629 46.3688 111.111 45.237C111.605 44.1052 112.275 43.123 113.12 42.2904C113.966 41.4448 114.955 40.7814 116.087 40.3C117.218 39.8057 118.428 39.5585 119.716 39.5585C120.991 39.5585 122.188 39.7992 123.307 40.2805C124.438 40.7618 125.427 41.4188 126.273 42.2514C127.118 43.084 127.788 44.0662 128.283 45.198C128.79 46.3168 129.05 47.5136 129.063 48.7885C129.063 49.2568 128.907 49.6406 128.595 49.9398C128.296 50.239 127.899 50.3886 127.405 50.3886H114.135ZM125.59 47.5786C125.473 46.8892 125.239 46.2647 124.887 45.7053C124.549 45.1329 124.12 44.6451 123.599 44.2418C123.092 43.8255 122.513 43.5068 121.863 43.2856C121.212 43.0515 120.516 42.9344 119.775 42.9344C119.033 42.9344 118.337 43.0515 117.687 43.2856C117.049 43.5198 116.477 43.845 115.969 44.2613C115.462 44.6646 115.039 45.1524 114.701 45.7248C114.376 46.2842 114.155 46.9022 114.038 47.5786H125.59ZM134.64 50.3886C134.77 51.0391 135.004 51.6375 135.342 52.1839C135.694 52.7173 136.11 53.1791 136.591 53.5694C137.086 53.9597 137.639 54.2654 138.25 54.4865C138.874 54.7077 139.531 54.8183 140.221 54.8183C141.04 54.8183 141.795 54.6817 142.484 54.4085C143.187 54.1353 143.766 53.745 144.221 53.2376C144.533 53.0165 144.826 52.8864 145.099 52.8474C145.385 52.7953 145.659 52.8148 145.919 52.9059C146.088 52.971 146.238 53.0685 146.368 53.1986C146.498 53.3157 146.615 53.4523 146.719 53.6084C146.927 53.9336 147.018 54.3044 146.992 54.7207C146.979 55.137 146.771 55.5142 146.368 55.8525C146.055 56.1647 145.698 56.4639 145.294 56.7501C144.891 57.0363 144.436 57.2835 143.928 57.4916C143.421 57.6998 142.862 57.8624 142.25 57.9795C141.639 58.1096 140.962 58.1746 140.221 58.1746C138.933 58.1746 137.723 57.934 136.591 57.4526C135.459 56.9583 134.471 56.2948 133.625 55.4622C132.78 54.6166 132.11 53.6279 131.615 52.4961C131.134 51.3643 130.893 50.1545 130.893 48.8666C130.893 47.5786 131.134 46.3688 131.615 45.237C132.11 44.1052 132.78 43.123 133.625 42.2904C134.471 41.4448 135.459 40.7814 136.591 40.3C137.723 39.8057 138.933 39.5585 140.221 39.5585C141.496 39.5585 142.693 39.7992 143.811 40.2805C144.943 40.7618 145.932 41.4188 146.777 42.2514C147.623 43.084 148.293 44.0662 148.787 45.198C149.295 46.3168 149.555 47.5136 149.568 48.7885C149.568 49.2568 149.412 49.6406 149.1 49.9398C148.8 50.239 148.404 50.3886 147.909 50.3886H134.64ZM146.094 47.5786C145.977 46.8892 145.743 46.2647 145.392 45.7053C145.054 45.1329 144.624 44.6451 144.104 44.2418C143.597 43.8255 143.018 43.5068 142.367 43.2856C141.717 43.0515 141.021 42.9344 140.279 42.9344C139.538 42.9344 138.842 43.0515 138.191 43.2856C137.554 43.5198 136.982 43.845 136.474 44.2613C135.967 44.6646 135.544 45.1524 135.206 45.7248C134.881 46.2842 134.659 46.9022 134.542 47.5786H146.094ZM155.579 39.7927H163.229C163.463 39.7927 163.684 39.8382 163.892 39.9292C164.1 40.0203 164.276 40.1439 164.419 40.3C164.575 40.4561 164.699 40.6382 164.79 40.8464C164.881 41.0415 164.926 41.2562 164.926 41.4904C164.926 41.7245 164.881 41.9457 164.79 42.1538C164.712 42.349 164.595 42.5246 164.439 42.6807C164.283 42.8238 164.1 42.9409 163.892 43.0319C163.684 43.123 163.463 43.1685 163.229 43.1685H155.579V49.0227C155.579 49.8292 155.735 50.5903 156.048 51.3058C156.36 52.0083 156.783 52.6197 157.316 53.1401C157.863 53.6604 158.493 54.0702 159.209 54.3694C159.937 54.6687 160.718 54.8183 161.551 54.8183C162.292 54.8183 162.975 54.7142 163.6 54.506C164.224 54.2849 164.816 53.9271 165.375 53.4328C165.479 53.3287 165.583 53.2441 165.688 53.1791C165.805 53.101 165.928 53.036 166.058 52.984C166.318 52.8799 166.592 52.8474 166.878 52.8864C167.164 52.9254 167.431 53.0555 167.678 53.2767C167.86 53.4458 167.99 53.6474 168.068 53.8816C168.146 54.1028 168.179 54.3369 168.166 54.5841C168.153 54.8183 168.094 55.0524 167.99 55.2866C167.886 55.5208 167.743 55.7224 167.561 55.8915C166.767 56.646 165.857 57.2185 164.829 57.6087C163.814 57.986 162.721 58.1746 161.551 58.1746C160.263 58.1746 159.046 57.9405 157.902 57.4721C156.77 56.9908 155.781 56.3403 154.935 55.5208C154.103 54.6882 153.439 53.7125 152.945 52.5937C152.464 51.4749 152.223 50.2715 152.223 48.9836V35.6557C152.223 35.1744 152.386 34.7646 152.711 34.4264C153.049 34.0881 153.452 33.919 153.921 33.919C154.155 33.919 154.37 33.9645 154.565 34.0556C154.773 34.1467 154.948 34.2703 155.092 34.4264C155.248 34.5825 155.365 34.7646 155.443 34.9728C155.534 35.1809 155.579 35.4086 155.579 35.6557V39.7927Z" fill="#1E2944"/>
<path d="M82.425 66.9763L85.0104 64.5531C85.0784 64.4877 85.1564 64.4575 85.2445 64.4625C85.3325 64.465 85.4093 64.499 85.4747 64.5644C85.5049 64.5971 85.5263 64.6336 85.5389 64.6739C85.554 64.7141 85.559 64.7557 85.554 64.7984C85.5515 64.8387 85.5401 64.879 85.52 64.9192C85.5024 64.9595 85.4772 64.996 85.4445 65.0287L83.5724 66.7762L85.5049 68.7314C85.5703 68.7993 85.6018 68.8786 85.5993 68.9692C85.5993 69.0573 85.5665 69.1327 85.5011 69.1956C85.4357 69.2586 85.3615 69.29 85.2784 69.29C85.1954 69.29 85.1224 69.2573 85.0595 69.1919L83.1044 67.2141L82.425 67.8482V68.9692C82.425 69.0598 82.3923 69.1365 82.3268 69.1994C82.2639 69.2598 82.1884 69.29 82.1004 69.29C82.0098 69.29 81.9318 69.2598 81.8664 69.1994C81.8034 69.1365 81.772 69.0598 81.772 68.9692V64.7796C81.772 64.689 81.8034 64.6135 81.8664 64.5531C81.9318 64.4902 82.0098 64.4587 82.1004 64.4587C82.1884 64.4587 82.2639 64.4902 82.3268 64.5531C82.3923 64.6135 82.425 64.689 82.425 64.7796V66.9763ZM89.477 67.4896V68.973C89.477 69.0661 89.4468 69.1428 89.3864 69.2032C89.326 69.2636 89.2505 69.2938 89.1599 69.2938C89.0693 69.2938 88.9913 69.2636 88.9259 69.2032C88.8605 69.1428 88.8278 69.0661 88.8278 68.973V67.4821V67.4783C88.8278 67.3273 88.8026 67.1864 88.7523 67.0555C88.7019 66.9222 88.6315 66.8064 88.5409 66.7083C88.4528 66.6102 88.3459 66.5322 88.2201 66.4743C88.0968 66.4164 87.9609 66.3875 87.8124 66.3875C87.6615 66.3875 87.5231 66.4152 87.3972 66.4705C87.2714 66.5259 87.162 66.6026 87.0689 66.7008C86.9758 66.7964 86.9028 66.9109 86.85 67.0442C86.7996 67.1751 86.7745 67.316 86.7745 67.467V68.973C86.7745 69.0661 86.7443 69.1428 86.6839 69.2032C86.6235 69.2636 86.548 69.2938 86.4574 69.2938C86.4121 69.2938 86.3693 69.2862 86.3291 69.2711C86.2888 69.2535 86.2536 69.2309 86.2234 69.2032C86.1932 69.1755 86.1693 69.1415 86.1517 69.1013C86.1341 69.061 86.1253 69.0182 86.1253 68.973V67.4783V67.467V67.4632C86.1253 67.2241 86.168 67.0002 86.2536 66.7913C86.3391 66.58 86.4574 66.3963 86.6084 66.2403C86.7594 66.0843 86.938 65.961 87.1444 65.8704C87.3507 65.7798 87.5734 65.7345 87.8124 65.7345C88.0515 65.7345 88.2729 65.7798 88.4767 65.8704C88.6805 65.961 88.8567 66.0843 89.0051 66.2403C89.1536 66.3963 89.2694 66.58 89.3524 66.7913C89.4354 67.0002 89.477 67.2241 89.477 67.4632V67.4707V67.4821V67.4896ZM90.6595 67.5349C90.6595 67.6909 90.6897 67.8394 90.7501 67.9803C90.8105 68.1187 90.8923 68.2407 90.9955 68.3464C91.0986 68.4496 91.2207 68.5326 91.3616 68.5955C91.5025 68.6559 91.6522 68.6861 91.8107 68.6861C91.9718 68.6861 92.1215 68.6559 92.2599 68.5955C92.3983 68.5326 92.5191 68.4496 92.6222 68.3464C92.7254 68.2407 92.8059 68.1187 92.8638 67.9803C92.9242 67.8394 92.9544 67.6909 92.9544 67.5349C92.9544 67.3764 92.9242 67.2279 92.8638 67.0895C92.8059 66.9486 92.7254 66.8266 92.6222 66.7234C92.5191 66.6202 92.3983 66.5385 92.2599 66.4781C92.1215 66.4177 91.9718 66.3875 91.8107 66.3875C91.6522 66.3875 91.5025 66.4177 91.3616 66.4781C91.2232 66.5385 91.1011 66.6202 90.9955 66.7234C90.8923 66.8266 90.8105 66.9486 90.7501 67.0895C90.6897 67.2279 90.6595 67.3764 90.6595 67.5349ZM90.0103 67.5349C90.0103 67.2858 90.0569 67.0518 90.15 66.8329C90.2456 66.6139 90.3752 66.424 90.5387 66.2629C90.7023 66.0994 90.8935 65.971 91.1125 65.8779C91.3314 65.7823 91.5641 65.7345 91.8107 65.7345C92.0598 65.7345 92.2926 65.7823 92.509 65.8779C92.7279 65.971 92.9179 66.0994 93.0789 66.2629C93.2425 66.424 93.3708 66.6139 93.4639 66.8329C93.5595 67.0518 93.6074 67.2858 93.6074 67.5349C93.6074 67.784 93.5595 68.018 93.4639 68.2369C93.3708 68.4533 93.2425 68.6433 93.0789 68.8069C92.9179 68.9704 92.7279 69.1 92.509 69.1956C92.2926 69.2888 92.0598 69.3353 91.8107 69.3353C91.5641 69.3353 91.3314 69.2888 91.1125 69.1956C90.8935 69.1 90.7023 68.9704 90.5387 68.8069C90.3752 68.6433 90.2456 68.4533 90.15 68.2369C90.0569 68.018 90.0103 67.784 90.0103 67.5349ZM95.4269 68.2181L96.4309 65.9723C96.4409 65.9496 96.4585 65.9245 96.4837 65.8968C96.5089 65.8666 96.5378 65.8414 96.5705 65.8213C96.6057 65.8012 96.646 65.7873 96.6913 65.7798C96.7366 65.7722 96.7857 65.7785 96.8385 65.7987C96.9014 65.8238 96.948 65.8553 96.9782 65.893C97.0109 65.9308 97.0323 65.971 97.0423 66.0138C97.0524 66.0541 97.0536 66.0943 97.0461 66.1346C97.0385 66.1748 97.0285 66.2076 97.0159 66.2327L96.7366 66.8668L97.348 68.2105L98.3483 65.9798C98.3609 65.9496 98.381 65.9194 98.4087 65.8893C98.4363 65.8591 98.4703 65.8339 98.5106 65.8138C98.5508 65.7936 98.5949 65.7836 98.6427 65.7836C98.693 65.781 98.7458 65.7936 98.8012 65.8213C98.8389 65.8414 98.8704 65.8679 98.8956 65.9006C98.9232 65.9333 98.9421 65.9685 98.9522 66.0063C98.9648 66.044 98.9698 66.083 98.9673 66.1233C98.9648 66.1635 98.956 66.2 98.9409 66.2327L97.6387 69.09C97.611 69.1478 97.577 69.1956 97.5368 69.2334C97.4965 69.2711 97.4399 69.29 97.3669 69.29C97.2914 69.29 97.2247 69.2724 97.1669 69.2372C97.109 69.2019 97.0662 69.1478 97.0385 69.0749L96.3856 67.5953L95.7288 69.0937C95.7011 69.1516 95.6596 69.1994 95.6043 69.2372C95.5514 69.2724 95.4885 69.29 95.4155 69.29C95.4055 69.29 95.3879 69.2888 95.3627 69.2862C95.3375 69.2812 95.3099 69.2724 95.2797 69.2598C95.252 69.2447 95.223 69.2246 95.1928 69.1994C95.1652 69.1717 95.1413 69.1365 95.1211 69.0937L93.8303 66.2478C93.8026 66.1925 93.7925 66.1346 93.8001 66.0742C93.8102 66.0138 93.8328 65.961 93.868 65.9157C93.9033 65.8679 93.9485 65.8314 94.0039 65.8062C94.0593 65.781 94.1197 65.7748 94.1851 65.7873C94.2455 65.7999 94.2958 65.8263 94.3361 65.8666C94.3763 65.9069 94.4053 65.9459 94.4229 65.9836L95.4269 68.2181ZM101.733 67.6066C101.733 67.7576 101.76 67.8985 101.816 68.0294C101.874 68.1602 101.952 68.2747 102.05 68.3728C102.148 68.4684 102.262 68.5439 102.393 68.5993C102.524 68.6546 102.665 68.6823 102.816 68.6823C102.965 68.6823 103.103 68.6546 103.231 68.5993C103.362 68.5439 103.475 68.4672 103.571 68.369C103.669 68.2709 103.746 68.1564 103.801 68.0256C103.859 67.8922 103.889 67.75 103.892 67.5991V67.584V67.5764V66.1082C103.892 66.0629 103.901 66.0201 103.918 65.9798C103.936 65.9396 103.96 65.9056 103.99 65.8779C104.02 65.8477 104.055 65.8238 104.096 65.8062C104.136 65.7886 104.179 65.7798 104.224 65.7798C104.317 65.7798 104.394 65.8125 104.454 65.8779C104.515 65.9408 104.545 66.0176 104.545 66.1082V67.5726V67.584V67.5991C104.545 67.8104 104.508 68.0117 104.435 68.203C104.365 68.3942 104.267 68.5653 104.141 68.7163C104.015 68.8673 103.865 68.9943 103.692 69.0975C103.521 69.1982 103.334 69.2674 103.133 69.3051V70.2374C103.133 70.2827 103.124 70.3255 103.107 70.3657C103.089 70.406 103.065 70.4412 103.035 70.4714C103.007 70.5016 102.973 70.5255 102.933 70.5431C102.895 70.5607 102.854 70.5695 102.809 70.5695C102.715 70.5695 102.637 70.5368 102.575 70.4714C102.512 70.4085 102.48 70.3305 102.48 70.2374V69.3013C102.279 69.2636 102.093 69.1931 101.922 69.09C101.753 68.9868 101.606 68.8597 101.48 68.7087C101.354 68.5578 101.256 68.3879 101.186 68.1992C101.115 68.0105 101.08 67.8104 101.08 67.5991V66.1082C101.08 66.0176 101.111 65.9408 101.174 65.8779C101.237 65.8125 101.314 65.7798 101.404 65.7798C101.45 65.7798 101.491 65.7886 101.529 65.8062C101.569 65.8238 101.604 65.8477 101.635 65.8779C101.665 65.9056 101.689 65.9396 101.706 65.9798C101.724 66.0201 101.733 66.0629 101.733 66.1082V67.6066ZM105.75 67.5349C105.75 67.6909 105.78 67.8394 105.84 67.9803C105.901 68.1187 105.983 68.2407 106.086 68.3464C106.189 68.4496 106.311 68.5326 106.452 68.5955C106.593 68.6559 106.743 68.6861 106.901 68.6861C107.062 68.6861 107.212 68.6559 107.35 68.5955C107.489 68.5326 107.609 68.4496 107.713 68.3464C107.816 68.2407 107.896 68.1187 107.954 67.9803C108.015 67.8394 108.045 67.6909 108.045 67.5349C108.045 67.3764 108.015 67.2279 107.954 67.0895C107.896 66.9486 107.816 66.8266 107.713 66.7234C107.609 66.6202 107.489 66.5385 107.35 66.4781C107.212 66.4177 107.062 66.3875 106.901 66.3875C106.743 66.3875 106.593 66.4177 106.452 66.4781C106.314 66.5385 106.191 66.6202 106.086 66.7234C105.983 66.8266 105.901 66.9486 105.84 67.0895C105.78 67.2279 105.75 67.3764 105.75 67.5349ZM105.101 67.5349C105.101 67.2858 105.147 67.0518 105.24 66.8329C105.336 66.6139 105.466 66.424 105.629 66.2629C105.793 66.0994 105.984 65.971 106.203 65.8779C106.422 65.7823 106.654 65.7345 106.901 65.7345C107.15 65.7345 107.383 65.7823 107.599 65.8779C107.818 65.971 108.008 66.0994 108.169 66.2629C108.333 66.424 108.461 66.6139 108.554 66.8329C108.65 67.0518 108.698 67.2858 108.698 67.5349C108.698 67.784 108.65 68.018 108.554 68.2369C108.461 68.4533 108.333 68.6433 108.169 68.8069C108.008 68.9704 107.818 69.1 107.599 69.1956C107.383 69.2888 107.15 69.3353 106.901 69.3353C106.654 69.3353 106.422 69.2888 106.203 69.1956C105.984 69.1 105.793 68.9704 105.629 68.8069C105.466 68.6433 105.336 68.4533 105.24 68.2369C105.147 68.018 105.101 67.784 105.101 67.5349ZM109.908 67.6028C109.908 67.7513 109.935 67.891 109.988 68.0218C110.04 68.1526 110.113 68.2671 110.206 68.3653C110.302 68.4634 110.414 68.5414 110.542 68.5993C110.673 68.6572 110.814 68.6861 110.965 68.6861C111.116 68.6861 111.253 68.6572 111.377 68.5993C111.5 68.5414 111.604 68.4622 111.69 68.3615C111.775 68.2608 111.841 68.1438 111.886 68.0105C111.934 67.8771 111.958 67.7349 111.958 67.584V66.1044C111.958 66.0138 111.991 65.9371 112.056 65.8742C112.121 65.8112 112.199 65.7798 112.29 65.7798C112.381 65.7798 112.456 65.8112 112.516 65.8742C112.579 65.9371 112.611 66.0138 112.611 66.1044V67.584C112.611 67.8255 112.571 68.0533 112.49 68.2671C112.409 68.4785 112.296 68.6635 112.15 68.822C112.004 68.9805 111.831 69.1063 111.629 69.1994C111.428 69.29 111.207 69.3353 110.965 69.3353C110.726 69.3353 110.502 69.29 110.293 69.1994C110.084 69.1088 109.903 68.9855 109.75 68.8295C109.596 68.671 109.475 68.4861 109.387 68.2747C109.299 68.0633 109.255 67.8381 109.255 67.5991V66.1044C109.255 66.0591 109.264 66.0176 109.282 65.9798C109.299 65.9396 109.322 65.9043 109.35 65.8742C109.38 65.844 109.414 65.8213 109.452 65.8062C109.492 65.7886 109.535 65.7798 109.58 65.7798C109.625 65.7798 109.667 65.7886 109.704 65.8062C109.745 65.8213 109.78 65.844 109.81 65.8742C109.84 65.9043 109.864 65.9396 109.882 65.9798C109.899 66.0176 109.908 66.0591 109.908 66.1044V67.6028ZM115.219 66.4328H115.215C115.049 66.4328 114.892 66.4655 114.743 66.5309C114.595 66.5938 114.465 66.6806 114.354 66.7913C114.244 66.9021 114.156 67.0329 114.09 67.1839C114.025 67.3323 113.992 67.4921 113.992 67.6632V68.9654C113.992 69.0585 113.962 69.1365 113.902 69.1994C113.841 69.2598 113.767 69.29 113.679 69.29C113.586 69.29 113.507 69.2598 113.441 69.1994C113.376 69.1365 113.343 69.0585 113.343 68.9654V67.6632C113.343 67.4041 113.392 67.1612 113.49 66.9348C113.588 66.7058 113.722 66.5057 113.89 66.3346C114.061 66.1635 114.26 66.0289 114.487 65.9308C114.716 65.8301 114.958 65.7798 115.215 65.7798H115.219H115.234C115.342 65.7798 115.425 65.8112 115.483 65.8742C115.543 65.9345 115.574 66.0113 115.574 66.1044C115.574 66.1975 115.541 66.2755 115.475 66.3384C115.41 66.4013 115.33 66.4328 115.234 66.4328H115.219ZM117.574 67.5349C117.574 67.2858 117.621 67.0518 117.714 66.8329C117.809 66.6139 117.939 66.424 118.102 66.2629C118.266 66.0994 118.457 65.971 118.676 65.8779C118.895 65.7823 119.128 65.7345 119.374 65.7345C119.621 65.7345 119.852 65.781 120.069 65.8742C120.285 65.9673 120.474 66.0943 120.635 66.2554C120.799 66.4164 120.928 66.6051 121.024 66.8215C121.119 67.0379 121.168 67.2694 121.171 67.516V67.5349V68.9541C121.171 69.0472 121.138 69.1265 121.073 69.1919C121.01 69.2573 120.931 69.29 120.835 69.29C120.742 69.29 120.665 69.2573 120.605 69.1919C120.547 69.1265 120.518 69.0472 120.518 68.9541L120.514 68.8748C120.358 69.0132 120.183 69.1252 119.99 69.2107C119.798 69.2938 119.593 69.3353 119.374 69.3353C119.128 69.3353 118.895 69.2888 118.676 69.1956C118.457 69.1 118.266 68.9704 118.102 68.8069C117.939 68.6433 117.809 68.4533 117.714 68.2369C117.621 68.018 117.574 67.784 117.574 67.5349ZM118.223 67.5349C118.223 67.6909 118.253 67.8394 118.314 67.9803C118.374 68.1187 118.456 68.2407 118.559 68.3464C118.662 68.4496 118.784 68.5326 118.925 68.5955C119.066 68.6559 119.216 68.6861 119.374 68.6861C119.535 68.6861 119.685 68.6559 119.824 68.5955C119.962 68.5326 120.083 68.4496 120.186 68.3464C120.289 68.2407 120.37 68.1187 120.427 67.9803C120.488 67.8394 120.518 67.6909 120.518 67.5349C120.518 67.3764 120.488 67.2279 120.427 67.0895C120.37 66.9486 120.289 66.8266 120.186 66.7234C120.083 66.6202 119.962 66.5385 119.824 66.4781C119.685 66.4177 119.535 66.3875 119.374 66.3875C119.216 66.3875 119.066 66.4177 118.925 66.4781C118.787 66.5385 118.665 66.6202 118.559 66.7234C118.456 66.8266 118.374 66.9486 118.314 67.0895C118.253 67.2279 118.223 67.3764 118.223 67.5349ZM124.604 68.9692C124.604 69.0598 124.572 69.1365 124.509 69.1994C124.449 69.2598 124.375 69.29 124.286 69.29C124.241 69.29 124.198 69.2825 124.158 69.2674C124.118 69.2497 124.083 69.2271 124.052 69.1994C124.022 69.1692 123.997 69.1353 123.977 69.0975C123.959 69.0573 123.951 69.0145 123.951 68.9692V67.0555V67.048V67.0329C123.946 66.9398 123.924 66.8542 123.886 66.7762C123.849 66.6957 123.798 66.6278 123.735 66.5724C123.673 66.5145 123.6 66.4693 123.516 66.4365C123.436 66.4038 123.35 66.3875 123.26 66.3875C123.164 66.3875 123.074 66.4051 122.988 66.4403C122.905 66.4755 122.831 66.5234 122.765 66.5837C122.702 66.6416 122.652 66.7108 122.614 66.7913C122.577 66.8719 122.558 66.9574 122.558 67.048V68.9692C122.558 69.0598 122.526 69.1365 122.463 69.1994C122.403 69.2598 122.329 69.29 122.241 69.29C122.195 69.29 122.153 69.2825 122.112 69.2674C122.072 69.2497 122.037 69.2271 122.007 69.1994C121.977 69.1692 121.953 69.1353 121.935 69.0975C121.917 69.0573 121.909 69.0145 121.909 68.9692V67.0555V67.048C121.909 66.8668 121.944 66.697 122.014 66.5385C122.087 66.3774 122.185 66.2378 122.309 66.1195C122.432 66.0012 122.574 65.9081 122.735 65.8402C122.896 65.7697 123.067 65.7345 123.249 65.7345C123.452 65.7345 123.642 65.7773 123.818 65.8628C123.997 65.9484 124.149 66.0629 124.275 66.2063C124.403 66.0629 124.557 65.9484 124.736 65.8628C124.914 65.7773 125.106 65.7345 125.309 65.7345C125.491 65.7345 125.66 65.7685 125.819 65.8364C125.977 65.9018 126.117 65.9924 126.238 66.1082C126.359 66.2239 126.456 66.3598 126.528 66.5158C126.601 66.6693 126.642 66.8341 126.649 67.0103C126.652 67.0203 126.653 67.0329 126.653 67.048V68.9692C126.653 69.0598 126.622 69.1365 126.559 69.1994C126.496 69.2598 126.42 69.29 126.332 69.29C126.287 69.29 126.244 69.2825 126.204 69.2674C126.164 69.2497 126.128 69.2271 126.098 69.1994C126.068 69.1692 126.044 69.1353 126.026 69.0975C126.009 69.0573 126 69.0145 126 68.9692V67.0593V67.048V67.0367C125.995 66.9436 125.974 66.8568 125.936 66.7762C125.898 66.6957 125.847 66.6278 125.781 66.5724C125.718 66.5145 125.645 66.4693 125.562 66.4365C125.479 66.4038 125.392 66.3875 125.302 66.3875C125.209 66.3875 125.119 66.4051 125.034 66.4403C124.951 66.4755 124.878 66.5234 124.815 66.5837C124.752 66.6416 124.702 66.7108 124.664 66.7913C124.626 66.8719 124.606 66.9574 124.604 67.048V67.0631V67.0706V68.9692ZM127.187 67.5349C127.187 67.2858 127.234 67.0518 127.327 66.8329C127.422 66.6139 127.552 66.424 127.715 66.2629C127.879 66.0994 128.07 65.971 128.289 65.8779C128.508 65.7823 128.741 65.7345 128.987 65.7345C129.234 65.7345 129.465 65.781 129.682 65.8742C129.898 65.9673 130.087 66.0943 130.248 66.2554C130.412 66.4164 130.541 66.6051 130.637 66.8215C130.732 67.0379 130.781 67.2694 130.784 67.516V67.5349V68.9541C130.784 69.0472 130.751 69.1265 130.686 69.1919C130.623 69.2573 130.544 69.29 130.448 69.29C130.355 69.29 130.278 69.2573 130.218 69.1919C130.16 69.1265 130.131 69.0472 130.131 68.9541L130.127 68.8748C129.971 69.0132 129.796 69.1252 129.603 69.2107C129.411 69.2938 129.206 69.3353 128.987 69.3353C128.741 69.3353 128.508 69.2888 128.289 69.1956C128.07 69.1 127.879 68.9704 127.715 68.8069C127.552 68.6433 127.422 68.4533 127.327 68.2369C127.234 68.018 127.187 67.784 127.187 67.5349ZM127.836 67.5349C127.836 67.6909 127.866 67.8394 127.927 67.9803C127.987 68.1187 128.069 68.2407 128.172 68.3464C128.275 68.4496 128.397 68.5326 128.538 68.5955C128.679 68.6559 128.829 68.6861 128.987 68.6861C129.148 68.6861 129.298 68.6559 129.437 68.5955C129.575 68.5326 129.696 68.4496 129.799 68.3464C129.902 68.2407 129.983 68.1187 130.04 67.9803C130.101 67.8394 130.131 67.6909 130.131 67.5349C130.131 67.3764 130.101 67.2279 130.04 67.0895C129.983 66.9486 129.902 66.8266 129.799 66.7234C129.696 66.6202 129.575 66.5385 129.437 66.4781C129.298 66.4177 129.148 66.3875 128.987 66.3875C128.829 66.3875 128.679 66.4177 128.538 66.4781C128.4 66.5385 128.278 66.6202 128.172 66.7234C128.069 66.8266 127.987 66.9486 127.927 67.0895C127.866 67.2279 127.836 67.3764 127.836 67.5349ZM134.507 65.7798C134.55 65.7798 134.59 65.7886 134.628 65.8062C134.668 65.8238 134.702 65.8465 134.73 65.8742C134.8 65.9371 134.836 66.0138 134.836 66.1044C134.836 66.195 134.804 66.2717 134.741 66.3346L132.503 68.637H134.579C134.624 68.637 134.667 68.6458 134.707 68.6635C134.747 68.6811 134.783 68.705 134.813 68.7352C134.843 68.7654 134.866 68.8006 134.881 68.8409C134.898 68.8786 134.907 68.9201 134.907 68.9654C134.907 69.056 134.876 69.1327 134.813 69.1956C134.75 69.2586 134.672 69.29 134.579 69.29H131.782C131.724 69.29 131.671 69.2774 131.623 69.2523C131.578 69.2246 131.542 69.1894 131.514 69.1466C131.461 69.0786 131.439 69.0044 131.446 68.9239C131.451 68.8509 131.479 68.7905 131.529 68.7427L133.767 66.4328H131.812C131.722 66.4328 131.645 66.4001 131.582 66.3346C131.519 66.2692 131.488 66.1912 131.488 66.1006C131.488 66.01 131.519 65.9345 131.582 65.8742C131.645 65.8112 131.722 65.7798 131.812 65.7798H134.507ZM135.589 64.9721C135.589 64.8664 135.624 64.7783 135.695 64.7079C135.768 64.6374 135.856 64.6022 135.959 64.6022C136.065 64.6022 136.153 64.6374 136.223 64.7079C136.296 64.7783 136.333 64.8664 136.333 64.9721C136.333 65.0224 136.323 65.0702 136.302 65.1155C136.285 65.1583 136.258 65.1973 136.223 65.2325C136.19 65.2652 136.151 65.2916 136.106 65.3118C136.061 65.3319 136.012 65.342 135.959 65.342C135.909 65.342 135.861 65.3319 135.816 65.3118C135.77 65.2916 135.73 65.2652 135.695 65.2325C135.662 65.1973 135.636 65.1583 135.615 65.1155C135.598 65.0702 135.589 65.0224 135.589 64.9721ZM136.287 68.9654C136.287 69.0107 136.279 69.0535 136.261 69.0937C136.246 69.1315 136.223 69.1655 136.193 69.1956C136.163 69.2233 136.128 69.246 136.087 69.2636C136.05 69.2812 136.008 69.29 135.963 69.29C135.917 69.29 135.875 69.2812 135.834 69.2636C135.797 69.246 135.763 69.2233 135.732 69.1956C135.702 69.1655 135.678 69.1315 135.661 69.0937C135.643 69.0535 135.634 69.0107 135.634 68.9654V66.1082C135.634 66.0176 135.667 65.9408 135.732 65.8779C135.798 65.8125 135.876 65.7798 135.967 65.7798C136.06 65.7798 136.136 65.8125 136.197 65.8779C136.257 65.9408 136.287 66.0176 136.287 66.1082V68.9654ZM140.454 67.4896V68.973C140.454 69.0661 140.424 69.1428 140.363 69.2032C140.303 69.2636 140.227 69.2938 140.137 69.2938C140.046 69.2938 139.968 69.2636 139.903 69.2032C139.837 69.1428 139.805 69.0661 139.805 68.973V67.4821V67.4783C139.805 67.3273 139.779 67.1864 139.729 67.0555C139.679 66.9222 139.608 66.8064 139.518 66.7083C139.43 66.6102 139.323 66.5322 139.197 66.4743C139.074 66.4164 138.938 66.3875 138.789 66.3875C138.638 66.3875 138.5 66.4152 138.374 66.4705C138.248 66.5259 138.139 66.6026 138.046 66.7008C137.953 66.7964 137.88 66.9109 137.827 67.0442C137.777 67.1751 137.751 67.316 137.751 67.467V68.973C137.751 69.0661 137.721 69.1428 137.661 69.2032C137.6 69.2636 137.525 69.2938 137.434 69.2938C137.389 69.2938 137.346 69.2862 137.306 69.2711C137.266 69.2535 137.23 69.2309 137.2 69.2032C137.17 69.1755 137.146 69.1415 137.129 69.1013C137.111 69.061 137.102 69.0182 137.102 68.973V67.4783V67.467V67.4632C137.102 67.2241 137.145 67.0002 137.23 66.7913C137.316 66.58 137.434 66.3963 137.585 66.2403C137.736 66.0843 137.915 65.961 138.121 65.8704C138.328 65.7798 138.55 65.7345 138.789 65.7345C139.028 65.7345 139.25 65.7798 139.454 65.8704C139.657 65.961 139.834 66.0843 139.982 66.2403C140.13 66.3963 140.246 66.58 140.329 66.7913C140.412 67.0002 140.454 67.2241 140.454 67.4632V67.4707V67.4821V67.4896ZM140.987 67.5349C140.987 67.2858 141.034 67.0518 141.127 66.8329C141.222 66.6139 141.352 66.424 141.516 66.2629C141.679 66.0994 141.87 65.971 142.089 65.8779C142.308 65.7823 142.541 65.7345 142.788 65.7345C143.037 65.7345 143.269 65.7823 143.486 65.8779C143.705 65.971 143.895 66.0994 144.056 66.2629C144.219 66.424 144.348 66.6139 144.441 66.8329C144.536 67.0518 144.584 67.2858 144.584 67.5349C144.584 67.7236 144.557 67.9035 144.501 68.0746C144.446 68.2432 144.37 68.3992 144.275 68.5427C144.365 68.6433 144.436 68.7641 144.486 68.905C144.536 69.0459 144.562 69.2082 144.562 69.3919C144.562 69.6108 144.525 69.8021 144.452 69.9656C144.382 70.1292 144.286 70.2663 144.165 70.377C144.044 70.4878 143.906 70.5708 143.75 70.6262C143.597 70.6815 143.437 70.7092 143.271 70.7092C143.213 70.7092 143.154 70.7054 143.093 70.6979C143.035 70.6928 142.975 70.6865 142.912 70.679C142.852 70.674 142.791 70.6702 142.731 70.6677C142.671 70.6652 142.613 70.6664 142.557 70.6714C142.494 70.679 142.428 70.6941 142.357 70.7167C142.289 70.7419 142.225 70.7784 142.165 70.8262C142.12 70.8665 142.069 70.8891 142.014 70.8941C141.958 70.9017 141.906 70.8954 141.855 70.8753C141.805 70.8577 141.76 70.8287 141.719 70.7885C141.682 70.7507 141.654 70.7067 141.636 70.6564C141.621 70.606 141.62 70.5519 141.633 70.4941C141.645 70.4387 141.679 70.3833 141.735 70.328C141.792 70.2751 141.868 70.2273 141.961 70.1845C142.057 70.1443 142.151 70.1141 142.244 70.094C142.382 70.0638 142.515 70.0499 142.64 70.0524C142.769 70.055 142.903 70.0562 143.044 70.0562C143.623 70.0562 143.912 69.8373 143.912 69.3995C143.912 69.2938 143.9 69.2133 143.875 69.1579C143.852 69.1 143.828 69.0535 143.803 69.0182C143.659 69.1189 143.501 69.1969 143.327 69.2523C143.156 69.3076 142.976 69.3353 142.788 69.3353C142.541 69.3353 142.308 69.2888 142.089 69.1956C141.87 69.1 141.679 68.9704 141.516 68.8069C141.352 68.6433 141.222 68.4533 141.127 68.2369C141.034 68.018 140.987 67.784 140.987 67.5349ZM141.636 67.5349C141.636 67.6909 141.667 67.8394 141.727 67.9803C141.787 68.1187 141.869 68.2395 141.972 68.3426C142.075 68.4458 142.198 68.5276 142.338 68.588C142.479 68.6484 142.629 68.6786 142.788 68.6786C142.949 68.6786 143.098 68.6484 143.237 68.588C143.375 68.5276 143.496 68.4458 143.599 68.3426C143.702 68.2395 143.783 68.1187 143.841 67.9803C143.901 67.8394 143.931 67.6909 143.931 67.5349C143.931 67.3764 143.901 67.2279 143.841 67.0895C143.783 66.9486 143.702 66.8266 143.599 66.7234C143.496 66.6202 143.375 66.5385 143.237 66.4781C143.098 66.4177 142.949 66.3875 142.788 66.3875C142.629 66.3875 142.479 66.4177 142.338 66.4781C142.2 66.5385 142.078 66.6202 141.972 66.7234C141.869 66.8266 141.787 66.9486 141.727 67.0895C141.667 67.2279 141.636 67.3764 141.636 67.5349ZM146.863 67.5349C146.863 67.2858 146.909 67.0518 147.002 66.8329C147.098 66.6139 147.227 66.424 147.391 66.2629C147.555 66.0994 147.746 65.971 147.965 65.8779C148.184 65.7823 148.416 65.7345 148.663 65.7345C148.912 65.7345 149.145 65.7823 149.361 65.8779C149.58 65.971 149.77 66.0994 149.931 66.2629C150.095 66.424 150.223 66.6139 150.316 66.8329C150.412 67.0518 150.46 67.2858 150.46 67.5349C150.46 67.784 150.412 68.018 150.316 68.2369C150.223 68.4533 150.095 68.6433 149.931 68.8069C149.77 68.9704 149.58 69.1 149.361 69.1956C149.145 69.2888 148.912 69.3353 148.663 69.3353C148.442 69.3353 148.234 69.2988 148.04 69.2258C147.846 69.1504 147.67 69.0472 147.512 68.9163V70.2298C147.512 70.3255 147.483 70.406 147.425 70.4714C147.367 70.5368 147.29 70.5695 147.195 70.5695C147.149 70.5695 147.107 70.5607 147.066 70.5431C147.026 70.5255 146.991 70.5016 146.961 70.4714C146.931 70.4412 146.907 70.4047 146.889 70.3619C146.871 70.3217 146.863 70.2777 146.863 70.2298V67.5349ZM147.512 67.5349C147.512 67.6909 147.542 67.8394 147.602 67.9803C147.663 68.1187 147.745 68.2407 147.848 68.3464C147.951 68.4496 148.073 68.5326 148.214 68.5955C148.355 68.6559 148.504 68.6861 148.663 68.6861C148.824 68.6861 148.974 68.6559 149.112 68.5955C149.251 68.5326 149.371 68.4496 149.474 68.3464C149.578 68.2407 149.658 68.1187 149.716 67.9803C149.776 67.8394 149.807 67.6909 149.807 67.5349C149.807 67.3764 149.776 67.2279 149.716 67.0895C149.658 66.9486 149.578 66.8266 149.474 66.7234C149.371 66.6202 149.251 66.5385 149.112 66.4781C148.974 66.4177 148.824 66.3875 148.663 66.3875C148.504 66.3875 148.355 66.4177 148.214 66.4781C148.075 66.5385 147.953 66.6202 147.848 66.7234C147.745 66.8266 147.663 66.9486 147.602 67.0895C147.542 67.2279 147.512 67.3764 147.512 67.5349ZM151.561 67.8293C151.586 67.9551 151.631 68.0709 151.697 68.1766C151.765 68.2797 151.845 68.369 151.938 68.4445C152.034 68.52 152.141 68.5792 152.259 68.6219C152.38 68.6647 152.507 68.6861 152.64 68.6861C152.799 68.6861 152.945 68.6597 153.078 68.6068C153.214 68.554 153.326 68.4785 153.414 68.3804C153.474 68.3376 153.531 68.3124 153.584 68.3049C153.639 68.2948 153.692 68.2986 153.742 68.3162C153.775 68.3288 153.804 68.3477 153.829 68.3728C153.854 68.3955 153.877 68.4219 153.897 68.4521C153.937 68.515 153.955 68.5867 153.95 68.6672C153.947 68.7477 153.907 68.8207 153.829 68.8861C153.769 68.9465 153.7 69.0044 153.622 69.0598C153.544 69.1151 153.456 69.1629 153.357 69.2032C153.259 69.2435 153.151 69.2749 153.033 69.2976C152.915 69.3227 152.784 69.3353 152.64 69.3353C152.391 69.3353 152.157 69.2888 151.938 69.1956C151.719 69.1 151.528 68.9717 151.365 68.8107C151.201 68.6471 151.071 68.4559 150.976 68.2369C150.883 68.018 150.836 67.784 150.836 67.5349C150.836 67.2858 150.883 67.0518 150.976 66.8329C151.071 66.6139 151.201 66.424 151.365 66.2629C151.528 66.0994 151.719 65.971 151.938 65.8779C152.157 65.7823 152.391 65.7345 152.64 65.7345C152.887 65.7345 153.118 65.781 153.335 65.8742C153.554 65.9673 153.745 66.0943 153.908 66.2554C154.072 66.4164 154.202 66.6064 154.297 66.8253C154.395 67.0417 154.446 67.2732 154.448 67.5198C154.448 67.6104 154.418 67.6846 154.358 67.7425C154.3 67.8004 154.223 67.8293 154.127 67.8293H151.561ZM153.776 67.2858C153.754 67.1524 153.708 67.0316 153.64 66.9234C153.575 66.8127 153.492 66.7184 153.391 66.6404C153.293 66.5598 153.181 66.4982 153.055 66.4554C152.93 66.4101 152.795 66.3875 152.652 66.3875C152.508 66.3875 152.374 66.4101 152.248 66.4554C152.124 66.5007 152.014 66.5636 151.916 66.6441C151.817 66.7221 151.736 66.8165 151.67 66.9272C151.607 67.0354 151.565 67.1549 151.542 67.2858H153.776ZM155.451 67.5349C155.451 67.6909 155.482 67.8394 155.542 67.9803C155.602 68.1187 155.684 68.2407 155.787 68.3464C155.89 68.4496 156.013 68.5326 156.153 68.5955C156.294 68.6559 156.444 68.6861 156.603 68.6861C156.764 68.6861 156.913 68.6559 157.052 68.5955C157.19 68.5326 157.311 68.4496 157.414 68.3464C157.517 68.2407 157.598 68.1187 157.656 67.9803C157.716 67.8394 157.746 67.6909 157.746 67.5349C157.746 67.3764 157.716 67.2279 157.656 67.0895C157.598 66.9486 157.517 66.8266 157.414 66.7234C157.311 66.6202 157.19 66.5385 157.052 66.4781C156.913 66.4177 156.764 66.3875 156.603 66.3875C156.444 66.3875 156.294 66.4177 156.153 66.4781C156.015 66.5385 155.893 66.6202 155.787 66.7234C155.684 66.8266 155.602 66.9486 155.542 67.0895C155.482 67.2279 155.451 67.3764 155.451 67.5349ZM154.802 67.5349C154.802 67.2858 154.849 67.0518 154.942 66.8329C155.037 66.6139 155.167 66.424 155.331 66.2629C155.494 66.0994 155.685 65.971 155.904 65.8779C156.123 65.7823 156.356 65.7345 156.603 65.7345C156.852 65.7345 157.084 65.7823 157.301 65.8779C157.52 65.971 157.71 66.0994 157.871 66.2629C158.034 66.424 158.163 66.6139 158.256 66.8329C158.351 67.0518 158.399 67.2858 158.399 67.5349C158.399 67.784 158.351 68.018 158.256 68.2369C158.163 68.4533 158.034 68.6433 157.871 68.8069C157.71 68.9704 157.52 69.1 157.301 69.1956C157.084 69.2888 156.852 69.3353 156.603 69.3353C156.356 69.3353 156.123 69.2888 155.904 69.1956C155.685 69.1 155.494 68.9704 155.331 68.8069C155.167 68.6433 155.037 68.4533 154.942 68.2369C154.849 68.018 154.802 67.784 154.802 67.5349ZM158.93 67.5349C158.93 67.2858 158.977 67.0518 159.07 66.8329C159.166 66.6139 159.295 66.424 159.459 66.2629C159.622 66.0994 159.814 65.971 160.033 65.8779C160.251 65.7823 160.484 65.7345 160.731 65.7345C160.98 65.7345 161.213 65.7823 161.429 65.8779C161.648 65.971 161.838 66.0994 161.999 66.2629C162.163 66.424 162.291 66.6139 162.384 66.8329C162.48 67.0518 162.527 67.2858 162.527 67.5349C162.527 67.784 162.48 68.018 162.384 68.2369C162.291 68.4533 162.163 68.6433 161.999 68.8069C161.838 68.9704 161.648 69.1 161.429 69.1956C161.213 69.2888 160.98 69.3353 160.731 69.3353C160.509 69.3353 160.302 69.2988 160.108 69.2258C159.914 69.1504 159.738 69.0472 159.58 68.9163V70.2298C159.58 70.3255 159.551 70.406 159.493 70.4714C159.435 70.5368 159.358 70.5695 159.263 70.5695C159.217 70.5695 159.174 70.5607 159.134 70.5431C159.094 70.5255 159.059 70.5016 159.029 70.4714C158.998 70.4412 158.974 70.4047 158.957 70.3619C158.939 70.3217 158.93 70.2777 158.93 70.2298V67.5349ZM159.58 67.5349C159.58 67.6909 159.61 67.8394 159.67 67.9803C159.731 68.1187 159.812 68.2407 159.916 68.3464C160.019 68.4496 160.141 68.5326 160.282 68.5955C160.423 68.6559 160.572 68.6861 160.731 68.6861C160.892 68.6861 161.042 68.6559 161.18 68.5955C161.318 68.5326 161.439 68.4496 161.542 68.3464C161.645 68.2407 161.726 68.1187 161.784 67.9803C161.844 67.8394 161.874 67.6909 161.874 67.5349C161.874 67.3764 161.844 67.2279 161.784 67.0895C161.726 66.9486 161.645 66.8266 161.542 66.7234C161.439 66.6202 161.318 66.5385 161.18 66.4781C161.042 66.4177 160.892 66.3875 160.731 66.3875C160.572 66.3875 160.423 66.4177 160.282 66.4781C160.143 66.5385 160.021 66.6202 159.916 66.7234C159.812 66.8266 159.731 66.9486 159.67 67.0895C159.61 67.2279 159.58 67.3764 159.58 67.5349ZM164.346 68.637C164.439 68.637 164.516 68.671 164.576 68.7389C164.636 68.8044 164.667 68.8824 164.667 68.973C164.667 69.0635 164.636 69.139 164.576 69.1994C164.516 69.2598 164.439 69.29 164.346 69.29H164.331C164.16 69.29 164 69.2598 163.851 69.1994C163.703 69.139 163.575 69.056 163.466 68.9503C163.358 68.8421 163.273 68.7125 163.21 68.5615C163.149 68.4106 163.119 68.2432 163.119 68.0595V64.7531C163.119 64.66 163.149 64.582 163.21 64.5191C163.27 64.4562 163.344 64.4248 163.432 64.4248C163.523 64.4248 163.601 64.4562 163.666 64.5191C163.734 64.582 163.768 64.66 163.768 64.7531V68.0595C163.771 68.2458 163.824 68.3892 163.927 68.4898C164.032 68.588 164.172 68.637 164.346 68.637ZM165.722 67.8293C165.747 67.9551 165.793 68.0709 165.858 68.1766C165.926 68.2797 166.007 68.369 166.1 68.4445C166.195 68.52 166.302 68.5792 166.421 68.6219C166.541 68.6647 166.668 68.6861 166.802 68.6861C166.96 68.6861 167.106 68.6597 167.24 68.6068C167.375 68.554 167.487 68.4785 167.576 68.3804C167.636 68.3376 167.693 68.3124 167.745 68.3049C167.801 68.2948 167.854 68.2986 167.904 68.3162C167.937 68.3288 167.966 68.3477 167.991 68.3728C168.016 68.3955 168.038 68.4219 168.059 68.4521C168.099 68.515 168.117 68.5867 168.111 68.6672C168.109 68.7477 168.069 68.8207 167.991 68.8861C167.93 68.9465 167.861 69.0044 167.783 69.0598C167.705 69.1151 167.617 69.1629 167.519 69.2032C167.421 69.2435 167.313 69.2749 167.194 69.2976C167.076 69.3227 166.945 69.3353 166.802 69.3353C166.553 69.3353 166.319 69.2888 166.1 69.1956C165.881 69.1 165.69 68.9717 165.526 68.8107C165.362 68.6471 165.233 68.4559 165.137 68.2369C165.044 68.018 164.998 67.784 164.998 67.5349C164.998 67.2858 165.044 67.0518 165.137 66.8329C165.233 66.6139 165.362 66.424 165.526 66.2629C165.69 66.0994 165.881 65.971 166.1 65.8779C166.319 65.7823 166.553 65.7345 166.802 65.7345C167.048 65.7345 167.28 65.781 167.496 65.8742C167.715 65.9673 167.906 66.0943 168.07 66.2554C168.234 66.4164 168.363 66.6064 168.459 66.8253C168.557 67.0417 168.607 67.2732 168.61 67.5198C168.61 67.6104 168.579 67.6846 168.519 67.7425C168.461 67.8004 168.384 67.8293 168.289 67.8293H165.722ZM167.938 67.2858C167.915 67.1524 167.87 67.0316 167.802 66.9234C167.737 66.8127 167.654 66.7184 167.553 66.6404C167.455 66.5598 167.343 66.4982 167.217 66.4554C167.091 66.4101 166.956 66.3875 166.813 66.3875C166.67 66.3875 166.535 66.4101 166.409 66.4554C166.286 66.5007 166.175 66.5636 166.077 66.6441C165.979 66.7221 165.897 66.8165 165.832 66.9272C165.769 67.0354 165.726 67.1549 165.703 67.2858H167.938Z" fill="#1E2944"/>
</svg>
