<svg width="23" height="16" viewBox="0 0 23 16" fill="none" xmlns="http://www.w3.org/2000/svg">
<path d="M15.3931 11C16.717 10.999 18.0217 11.3171 19.1967 11.9273C20.3717 12.5375 21.3824 13.4218 22.1431 14.5054" stroke="black" stroke-width="1.5" stroke-linecap="round" stroke-linejoin="round"/>
<path d="M1 14.5059C1.76138 13.4229 2.77215 12.539 3.94698 11.9288C5.12182 11.3186 6.42623 11.0001 7.75008 11C9.07393 10.9999 10.3784 11.3184 11.5532 11.9285C12.7281 12.5386 13.739 13.4225 14.5004 14.5054" stroke="black" stroke-width="1.5" stroke-linecap="round" stroke-linejoin="round"/>
<path d="M14.0703 1.43173C14.7408 1.24281 15.4441 1.19978 16.1326 1.30552C16.8212 1.41126 17.4791 1.66333 18.062 2.04475C18.6449 2.42616 19.1393 2.92807 19.512 3.51666C19.8846 4.10525 20.1268 4.76685 20.2221 5.45692C20.3175 6.14698 20.264 6.84947 20.065 7.51708C19.866 8.18469 19.5263 8.80191 19.0687 9.32717C18.6111 9.85243 18.0463 10.2735 17.4123 10.5621C16.7782 10.8507 16.0897 11.0001 15.3931 11.0001" stroke="black" stroke-width="1.5" stroke-linecap="round" stroke-linejoin="round"/>
<path d="M7.75049 11C10.4429 11 12.6255 8.81739 12.6255 6.125C12.6255 3.43261 10.4429 1.25 7.75049 1.25C5.0581 1.25 2.87549 3.43261 2.87549 6.125C2.87549 8.81739 5.0581 11 7.75049 11Z" stroke="black" stroke-width="1.5" stroke-linecap="round" stroke-linejoin="round"/>
</svg>
