<svg width="19" height="19" viewBox="0 0 19 19" fill="none" xmlns="http://www.w3.org/2000/svg">
<path d="M11.4995 17.4992V12.9991C11.4995 12.8001 11.4204 12.6094 11.2798 12.4687C11.1391 12.3281 10.9484 12.2491 10.7495 12.2491H7.74945C7.55054 12.2491 7.35977 12.3281 7.21912 12.4687C7.07847 12.6094 6.99945 12.8001 6.99945 12.9991V17.4992C6.99945 17.698 6.92045 17.8888 6.77981 18.0294C6.63918 18.1701 6.44844 18.2491 6.24954 18.2492L1.75009 18.2497C1.65159 18.2498 1.55406 18.2304 1.46305 18.1927C1.37205 18.155 1.28936 18.0998 1.2197 18.0301C1.15005 17.9605 1.0948 17.8778 1.0571 17.7868C1.0194 17.6958 1 17.5982 1 17.4997V8.83158C1 8.72709 1.02183 8.62375 1.0641 8.5282C1.10637 8.43264 1.16814 8.34696 1.24545 8.27667L8.74493 1.45778C8.88299 1.33226 9.06287 1.2627 9.24946 1.2627C9.43605 1.26269 9.61594 1.33223 9.754 1.45775L17.2545 8.27667C17.3318 8.34696 17.3936 8.43264 17.4359 8.5282C17.4782 8.62377 17.5 8.72711 17.5 8.83161V17.4997C17.5 17.5982 17.4806 17.6958 17.4429 17.7868C17.4052 17.8778 17.35 17.9605 17.2803 18.0301C17.2106 18.0998 17.128 18.155 17.0369 18.1927C16.9459 18.2304 16.8484 18.2498 16.7499 18.2497L12.2494 18.2492C12.0505 18.2491 11.8597 18.1701 11.7191 18.0295C11.5785 17.8888 11.4994 17.698 11.4995 17.4992V17.4992Z" stroke="black" stroke-width="1.5" stroke-linecap="round" stroke-linejoin="round"/>
</svg>
